<?xml version="1.0" encoding="utf-8"?>
<!-- Generator: Adobe Illustrator 16.0.0, SVG Export Plug-In . SVG Version: 6.00 Build 0)  -->
<!DOCTYPE svg PUBLIC "-//W3C//DTD SVG 1.1//EN" "http://www.w3.org/Graphics/SVG/1.1/DTD/svg11.dtd">
<svg version="1.1" id="Layer_1" xmlns="http://www.w3.org/2000/svg" xmlns:xlink="http://www.w3.org/1999/xlink" x="0px" y="0px"
	 width="237px" height="174px" viewBox="0 0 237 174" enable-background="new 0 0 237 174" xml:space="preserve">
<g>
	<g>
		<path fill="#349BBC" stroke="#349BBC" stroke-width="0.0938" stroke-miterlimit="10.43" d="M2.294,6.329
			c0.903-3.62,4.449-6.333,8.181-6.263c19.132,0.015,38.263-0.052,57.393-0.034c19.952,0.024,39.905-0.046,59.857-0.029
			c10.34,0.066,20.685,0,31.025,0.054c-3.596,0.981-6.687,3.351-8.896,6.312c-2.572,3.422-4.256,7.455-5.227,11.607
			c-40.66-0.01-81.32-0.002-121.977-0.004c-0.002,46.034-0.002,92.064,0,138.099c61.201,0,122.401,0,183.599-0.003
			c0.003-39.898,0.003-79.798,0.003-119.699c6.651-0.002,13.303,0,19.959,0c0.002,42.231-0.003,84.464,0,126.696
			c-0.006,1.691,0.046,3.438-0.525,5.057c-0.77,2.245-2.543,4.119-4.748,4.999c-1.32,0.558-2.775,0.602-4.171,0.8
			c-69.084-0.017-138.183,0.01-207.257-0.015c-4.05-0.429-7.494-4.06-7.511-8.166c0.169-1.297,0.091-2.607,0.108-3.912
			c-0.002-50.368-0.002-100.736,0-151.104C2.177,9.254,1.826,7.761,2.294,6.329z M215.156,81.775
			c-2.024,0.589-3.611,2.428-3.858,4.526c-0.3,2.031,0.704,4.153,2.418,5.265c1.587,1.063,3.748,1.181,5.446,0.3
			c1.639-0.815,2.804-2.509,2.965-4.336c0.206-1.931-0.729-3.925-2.338-5.009C218.463,81.586,216.71,81.314,215.156,81.775z"/>
	</g>
	<g>
		<path fill="#349BBC" stroke="#349BBC" stroke-width="0.0938" stroke-miterlimit="10.43" d="M162.754,4.56
			c6.388-3.971,14.992-3.934,21.346,0.094c3.623,2.237,6.506,5.639,8.126,9.576c12.013,0.014,24.024-0.027,36.034,0.02
			c2.207,2.482,4.157,5.23,6.341,7.753c-2.146,2.546-4.178,5.191-6.278,7.776c-0.304-0.005-0.604-0.01-0.902-0.017
			c-1.06-2.167-2.15-4.315-3.225-6.471c-1.092,2.164-2.154,4.339-3.259,6.493c-0.632-0.01-1.26-0.01-1.885-0.01
			c-1.078-2.153-2.154-4.31-3.233-6.466c-1.084,2.154-2.154,4.317-3.24,6.469c-0.638-0.003-1.273-0.003-1.906,0
			c-1.063-2.075-2.067-4.18-3.145-6.248c-0.044-0.01-0.132-0.027-0.177-0.037c-1.076,2.083-2.096,4.194-3.156,6.285
			c-3.99-0.003-7.979-0.003-11.969,0c-1.782,4.329-5.097,8.006-9.228,10.213c-3.748,2.029-8.146,2.809-12.367,2.237
			c-7.525-0.917-14.22-6.438-16.597-13.628c-1.587-4.643-1.431-9.86,0.452-14.394C156.125,10.219,159.069,6.792,162.754,4.56z
			 M171.942,15.699c-3.225,0.655-5.569,4.055-4.972,7.305c0.454,3.409,3.969,6.002,7.364,5.384c3.507-0.449,6.132-4.151,5.359-7.609
			C179.11,17.313,175.363,14.833,171.942,15.699z"/>
	</g>
	<path fill="#349BBC" stroke="#349BBC" stroke-width="0.0938" stroke-miterlimit="10.43" d="M103.781,42.271
		c4.47-1.129,9.312-0.68,13.502,1.235c5.062,2.287,9.107,6.471,11.743,11.313c4.782,8.813,5.233,19.788,1.43,29.04
		c-2.568,6.229-7.284,11.78-13.558,14.465c-1.269,0.55-2.596,0.956-3.941,1.253c10.13,0.668,20.133,3.967,28.5,9.756
		c6.354,4.396,11.758,10.253,15.257,17.166c2.386,4.647,3.854,9.767,4.291,14.974c-34.828,0-69.656,0-104.484,0
		c0.721-9.048,4.717-17.682,10.761-24.406c9.413-10.54,23.266-16.576,37.263-17.494c-5.436-1.143-10.219-4.533-13.563-8.911
		c-4.68-6.088-6.792-13.939-6.407-21.563c0.319-6.822,2.677-13.626,7.06-18.909C94.757,46.41,98.994,43.46,103.781,42.271z"/>
	<path fill="#349BBC" stroke="#349BBC" stroke-width="0.0938" stroke-miterlimit="10.43" d="M67.596,62.716
		c4.459-1.847,9.707-1.492,13.93,0.821c-1.403,6.65-0.947,13.707,1.462,20.075c1.645,4.356,4.217,8.394,7.633,11.573
		c-0.79,1.746-1.695,3.485-2.949,4.947c-5.349,1.769-10.484,4.231-15.101,7.477c-2.752-0.417-5.501-1.177-7.836-2.745
		c-4.499-2.879-7.604-7.604-9.079-12.685c-1.881-6.5-1.322-13.735,1.783-19.77C59.607,68.169,63.139,64.517,67.596,62.716z"/>
	<path fill="#349BBC" stroke="#349BBC" stroke-width="0.0938" stroke-miterlimit="10.43" d="M135.994,64.369
		c3.153-1.717,6.869-2.403,10.421-1.811c4.325,0.686,8.22,3.207,10.968,6.567c5.7,6.941,6.98,16.939,4.012,25.317
		c-1.471,4.13-4.046,7.935-7.601,10.55c-2.563,1.887-5.649,3.149-8.851,3.289c4.207,0.224,8.414,0.764,12.449,2.012
		c7.92,2.369,15.258,6.977,20.437,13.467c4.049,5.038,6.678,11.251,7.19,17.712c-6.74,0.006-13.481,0-20.224,0.002
		c-0.659-8.413-4.028-16.524-9.274-23.108c-6.535-8.267-15.751-14.216-25.746-17.418c-1.148-1.523-2.112-3.182-2.883-4.925
		c5.919-5.544,9.256-13.501,9.799-21.527C136.923,71.107,136.699,67.69,135.994,64.369z"/>
	<path fill="#349BBC" stroke="#349BBC" stroke-width="0.0938" stroke-miterlimit="10.43" d="M68.089,107.825
		c1.482-0.151,2.973-0.347,4.464-0.201c-6.655,4.692-12.287,10.94-15.819,18.309c-2.21,4.608-3.613,9.62-3.996,14.726
		c-6.746,0.046-13.494,0.007-20.241,0.017c0.674-8.779,5.298-16.969,11.928-22.66C51.017,112.287,59.44,108.826,68.089,107.825z"/>
</g>
</svg>
