<?xml version="1.0" encoding="utf-8"?>
<!-- Generator: Adobe Illustrator 16.0.0, SVG Export Plug-In . SVG Version: 6.00 Build 0)  -->
<!DOCTYPE svg PUBLIC "-//W3C//DTD SVG 1.1//EN" "http://www.w3.org/Graphics/SVG/1.1/DTD/svg11.dtd">
<svg version="1.1" id="Layer_1" xmlns="http://www.w3.org/2000/svg" xmlns:xlink="http://www.w3.org/1999/xlink" x="0px" y="0px"
	 width="35px" height="40px" viewBox="0 0 35 40" enable-background="new 0 0 35 40" xml:space="preserve">
<path fill="#C6CBCE" d="M33.874,0H1.105c-0.612,0-1.064,0.708-1.01,1.318l2.984,33.63c0.054,0.609,0.576,1.292,1.164,1.458
	l12.13,3.45c0.589,0.166,1.543,0.18,2.132,0.016l12.228-3.419c0.591-0.166,1.11-0.792,1.164-1.401l2.985-33.735
	C34.938,0.707,34.485,0,33.874,0z M16.268,4h1.852c0.256,0,0.521,0.414,0.558,0.667c0.308,1.973,1.292,7.395,1.969,10.969
	c0.036,0.346,0.077,0.689,0.013,1.094c-0.204,0.953-0.914,2.227-1.625,3.503c-0.002-0.009-3.178-15.541-3.178-15.541
	C15.811,4.441,16.013,4,16.268,4z M6.275,19.006c0,0-0.064-2.79,0.684-4.291c1.37-2.748,5.763-2.703,7.621-0.67
	c2.028,2.218,2.951,5.057,2.448,8.331c-0.523,3.415-3.652,3.249-3.652,3.249s1.472-3.848,0.773-6.174
	C12.167,12.842,6.275,19.006,6.275,19.006z M29,13.658c0,0.256-0.252,0.361-0.512,0.36l-0.981,0.006l-5.093,10.133l1.31,6.618
	C23.769,31.027,23.546,31,23.289,31h-1.51c-0.256,0-0.397,0.235-0.441-0.016l-0.762-3.576c-0.067,0.178-0.386,0.7-1.582,1.881
	c-2.314,2.28-4.391,2.158-5.544,2.158c-1.469,0-7.046-0.944-7.052-10.434c0.554-0.578,1.509-1.481,2.776-2.114
	C9.093,19.444,9,19.996,9,20.521c0,0.015,0,0.108,0,0.139c0,3.384,2.233,7.822,4.875,7.922c1.558-0.016,2.426-1.105,3.035-1.826
	C19.168,24.075,26.552,9,26.552,9h1.79C28.598,9,29,9.803,29,10.058V13.658z"/>
</svg>
