<?xml version="1.0" encoding="utf-8"?>
<!-- Generator: Adobe Illustrator 16.0.0, SVG Export Plug-In . SVG Version: 6.00 Build 0)  -->
<!DOCTYPE svg PUBLIC "-//W3C//DTD SVG 1.1//EN" "http://www.w3.org/Graphics/SVG/1.1/DTD/svg11.dtd">
<svg version="1.1" id="Layer_1" xmlns="http://www.w3.org/2000/svg" xmlns:xlink="http://www.w3.org/1999/xlink" x="0px" y="0px"
	 width="237px" height="174px" viewBox="0 0 237 174" enable-background="new 0 0 237 174" xml:space="preserve">
<g>
	<g>
		<path fill="#349BBC" stroke="#349BBC" stroke-width="0.0938" stroke-miterlimit="10.43" d="M7.62,1.452
			c1.186-0.604,2.515-0.908,3.847-0.911c23.572,0.002,47.145-0.054,70.717-0.034c17.861,0.012,35.722-0.083,53.584,0
			c7.867,0.009,15.736-0.024,23.604,0.034c-3.59,0.964-6.663,3.338-8.871,6.284c-2.566,3.414-4.247,7.439-5.215,11.582
			c-40.562-0.009-81.125-0.002-121.684-0.002c-0.002,45.922-0.002,91.843,0,137.768c61.054,0,122.106,0,183.16-0.003
			c0.002-39.804,0.002-79.607,0-119.411c6.637-0.005,13.275,0,19.911-0.005c0.008,41.641,0,83.28,0.003,124.921
			c-0.027,1.868,0.11,3.76-0.263,5.604c-0.605,2.809-2.777,5.217-5.518,6.09c-1.079,0.391-2.242,0.368-3.353,0.599
			c-45.613,0.014-91.226,0.002-136.838,0.007c-23.328,0.018-46.661-0.034-69.983,0.026c-1.483-0.205-2.952-0.673-4.17-1.563
			c-2.063-1.441-3.408-3.847-3.55-6.359c0.215-2.931,0.058-5.874,0.105-8.81c0.002-49.104,0-98.212,0.002-147.317
			C2.581,6.526,4.537,2.974,7.62,1.452z M215.646,82.055c-2.024,0.587-3.609,2.432-3.852,4.53c-0.301,2.08,0.767,4.243,2.553,5.327
			c1.565,0.979,3.641,1.062,5.283,0.217c1.642-0.813,2.812-2.509,2.971-4.338c0.202-1.921-0.728-3.908-2.325-4.99
			C218.949,81.869,217.197,81.592,215.646,82.055z"/>
	</g>
	<g>
		<path fill="#349BBC" stroke="#349BBC" stroke-width="0.0938" stroke-miterlimit="10.43" d="M163.675,4.84
			c3.977-2.346,8.771-3.24,13.332-2.542c6.944,0.986,13.136,5.876,15.764,12.373c12.02,0.017,24.04-0.034,36.059,0.024
			c2.05,2.594,4.094,5.195,6.215,7.73c-2.142,2.542-4.172,5.177-6.262,7.764c-0.314-0.017-0.622-0.029-0.928-0.042
			c-1.019-2.166-2.131-4.29-3.191-6.436c-1.091,2.156-2.146,4.33-3.255,6.475c-0.626-0.007-1.253-0.012-1.876-0.01
			c-1.077-2.148-2.146-4.299-3.225-6.445c-1.088,2.146-2.15,4.302-3.234,6.448c-0.636-0.002-1.27-0.002-1.9,0.003
			c-1.101-2.134-2.114-4.314-3.253-6.426c-1.067,2.144-2.137,4.285-3.21,6.423c-3.981-0.002-7.96-0.002-11.939,0
			c-1.732,4.211-4.919,7.804-8.895,10.021c-3.666,2.063-7.985,2.926-12.162,2.459c-4.563-0.479-8.934-2.58-12.164-5.836
			c-2.842-2.822-4.813-6.504-5.579-10.437c-0.693-3.554-0.448-7.294,0.758-10.711C156.298,11.154,159.539,7.249,163.675,4.84z
			 M172.531,16.136c-3.223,0.661-5.562,4.062-4.952,7.307c0.462,3.397,3.971,5.971,7.353,5.35c3.502-0.453,6.118-4.158,5.332-7.608
			C179.675,17.734,175.936,15.27,172.531,16.136z"/>
	</g>
	<path fill="#349BBC" stroke="#349BBC" stroke-width="0.0938" stroke-miterlimit="10.43" d="M105.171,42.501
		c4.875-1.082,10.116-0.255,14.459,2.195c4.503,2.503,8.059,6.511,10.408,11.065c4.526,8.805,4.83,19.627,0.961,28.721
		c-2.611,6.122-7.322,11.55-13.54,14.151c-1.219,0.515-2.486,0.901-3.776,1.183c10.227,0.674,20.325,4.032,28.73,9.938
		c6.255,4.391,11.567,10.219,15.006,17.07c2.334,4.599,3.769,9.649,4.201,14.789c-34.746,0-69.489,0-104.234,0
		c0.725-9.085,4.757-17.749,10.85-24.476c9.392-10.442,23.161-16.421,37.075-17.323c-5.432-1.134-10.208-4.521-13.546-8.896
		c-4.669-6.072-6.773-13.899-6.392-21.5c0.321-6.924,2.751-13.838,7.27-19.145C95.873,46.47,100.257,43.548,105.171,42.501z"/>
</g>
</svg>
