<?xml version="1.0" encoding="utf-8"?>
<!-- Generator: Adobe Illustrator 16.0.0, SVG Export Plug-In . SVG Version: 6.00 Build 0)  -->
<!DOCTYPE svg PUBLIC "-//W3C//DTD SVG 1.1//EN" "http://www.w3.org/Graphics/SVG/1.1/DTD/svg11.dtd">
<svg version="1.1" id="Layer_1" xmlns="http://www.w3.org/2000/svg" xmlns:xlink="http://www.w3.org/1999/xlink" x="0px" y="0px"
	 width="50px" height="50px" viewBox="0 0 50 50" enable-background="new 0 0 50 50" xml:space="preserve">
<polygon fill="#ADBBC6" points="25.108,0 27.285,4.28 30.306,0.546 31.546,5.187 35.275,2.162 35.523,6.958 39.803,4.774 
	39.048,9.518 43.688,8.272 41.963,12.754 46.759,12.5 44.14,16.526 48.884,17.275 45.485,20.668 49.971,22.387 45.942,25 
	49.971,27.613 45.485,29.331 48.884,32.726 44.14,33.474 46.759,37.5 41.963,37.246 43.688,41.728 39.048,40.482 39.803,45.225 
	35.523,43.041 35.275,47.839 31.546,44.813 30.306,49.453 27.285,45.719 25.108,50 22.929,45.719 19.909,49.453 18.669,44.813 
	14.938,47.839 14.69,43.041 10.413,45.225 11.167,40.482 6.528,41.728 8.252,37.246 3.456,37.5 6.074,33.474 1.329,32.726 
	4.729,29.331 0.243,27.613 4.273,25 0.243,22.387 4.729,20.668 1.329,17.275 6.074,16.526 3.456,12.5 8.252,12.754 6.528,8.272 
	11.167,9.518 10.413,4.774 14.69,6.958 14.938,2.162 18.669,5.187 19.909,0.546 22.929,4.28 "/>
</svg>
