<?xml version="1.0" encoding="utf-8"?>
<!-- Generator: Adobe Illustrator 16.0.0, SVG Export Plug-In . SVG Version: 6.00 Build 0)  -->
<!DOCTYPE svg PUBLIC "-//W3C//DTD SVG 1.1//EN" "http://www.w3.org/Graphics/SVG/1.1/DTD/svg11.dtd">
<svg version="1.1" id="Layer_1" xmlns="http://www.w3.org/2000/svg" xmlns:xlink="http://www.w3.org/1999/xlink" x="0px" y="0px"
	 width="165px" height="185px" viewBox="0 0 165 185" enable-background="new 0 0 165 185" xml:space="preserve">
<polygon fill="#C3CAC3" points="82.932,36.522 87.965,46.417 94.954,37.782 97.815,48.517 106.448,41.522 107.02,52.611 
	116.91,47.561 115.169,58.533 125.895,55.651 121.912,66.014 133,65.429 126.945,74.738 137.911,76.47 130.051,84.315 
	140.43,88.294 131.11,94.335 140.43,100.377 130.051,104.353 137.911,112.204 126.945,113.933 133,123.246 121.912,122.656 
	125.895,133.025 115.169,130.14 116.91,141.111 107.02,136.056 106.448,147.154 97.815,140.153 94.954,150.882 87.965,142.247 
	82.932,152.148 77.894,142.247 70.909,150.882 68.04,140.153 59.413,147.154 58.839,136.056 48.947,141.111 50.692,130.14 
	39.963,133.025 43.95,122.656 32.861,123.246 38.915,113.933 27.939,112.204 35.802,104.353 25.43,100.377 34.749,94.335 
	25.43,88.294 35.802,84.315 27.939,76.47 38.915,74.738 32.861,65.429 43.95,66.014 39.963,55.651 50.692,58.533 48.947,47.561 
	58.839,52.611 59.413,41.522 68.04,48.517 70.909,37.782 77.894,46.417 "/>
</svg>
