<?xml version="1.0" encoding="utf-8"?>
<!-- Generator: Adobe Illustrator 16.0.0, SVG Export Plug-In . SVG Version: 6.00 Build 0)  -->
<!DOCTYPE svg PUBLIC "-//W3C//DTD SVG 1.1//EN" "http://www.w3.org/Graphics/SVG/1.1/DTD/svg11.dtd">
<svg version="1.1" id="Layer_1" xmlns="http://www.w3.org/2000/svg" xmlns:xlink="http://www.w3.org/1999/xlink" x="0px" y="0px"
	 width="130px" height="108px" viewBox="0 0 130 108" enable-background="new 0 0 130 108" xml:space="preserve">
<g>
	<g>
		<path fill="#2D2D2D" d="M2.139,0h59.194c1.201,0.126,2.22,1.193,2.188,2.417c0.014,12.613,0.002,25.227,0.005,37.841
			c0.021,0.713-0.232,1.446-0.77,1.931c-0.476,0.458-1.142,0.66-1.793,0.648c-19.177,0.001-38.354-0.001-57.531,0.001
			c-0.753-0.007-1.573,0.082-2.246-0.332C0.553,42.158,0.151,41.5,0,40.805V2.102C0.143,1.013,1.063,0.148,2.139,0z M4.145,4.177
			c-0.001,11.5-0.001,23,0,34.5c18.407,0.001,36.814,0.001,55.221,0c0.001-11.501,0.001-23,0-34.5
			C40.959,4.175,22.552,4.175,4.145,4.177z M31.296,39.806c-0.673,0.298-0.798,1.313-0.206,1.753
			c0.583,0.539,1.63,0.116,1.706-0.664C32.943,40.105,32.003,39.41,31.296,39.806z"/>
	</g>
	<path fill="#2D2D2D" d="M28.913,8.208c1.339-0.78,3-0.987,4.486-0.538c1.386,0.407,2.576,1.344,3.421,2.501
		c2.431,3.343,2.241,8.402-0.586,11.456c-0.861,0.935-1.994,1.606-3.228,1.909c3.707,0.264,7.368,1.807,9.956,4.507
		c1.859,1.92,3.097,4.461,3.32,7.136c-9.665,0.003-19.33,0-28.995,0.002c0.218-2.693,1.472-5.251,3.353-7.174
		c2.595-2.688,6.259-4.227,9.967-4.468c-1.665-0.364-3.097-1.464-4.033-2.864c-1.531-2.27-1.89-5.232-1.129-7.842
		C25.995,10.948,27.187,9.194,28.913,8.208z"/>
	<path fill="#2D2D2D" d="M75.369,16.19c1.458-0.391,3.1,0.468,3.612,1.885c0.514,1.281,0.033,2.866-1.116,3.636
		c-1.104,0.793-2.729,0.717-3.754-0.181c-0.75-0.629-1.165-1.634-1.069-2.612C73.124,17.632,74.117,16.48,75.369,16.19z"/>
	<path fill="#2D2D2D" d="M86.423,16.203c0.969-0.258,2.057-0.011,2.807,0.654c0.742,0.631,1.142,1.628,1.045,2.597
		c-0.088,1.337-1.165,2.521-2.482,2.751c-1.03,0.208-2.152-0.163-2.854-0.946c-0.729-0.775-0.987-1.944-0.681-2.959
		C84.548,17.287,85.404,16.466,86.423,16.203z"/>
	<path fill="#2D2D2D" d="M97.694,16.165c1.646-0.385,3.432,0.836,3.658,2.511c0.315,1.612-0.894,3.309-2.517,3.54
		c-1.617,0.325-3.325-0.884-3.556-2.514C94.965,18.123,96.108,16.447,97.694,16.165z"/>
	<path fill="#2D2D2D" d="M97.742,27.258c1.515-0.319,3.146,0.688,3.537,2.187c0.313,1.066-0.013,2.286-0.818,3.05
		c-0.722,0.708-1.799,1.016-2.784,0.802c-0.959-0.19-1.796-0.878-2.183-1.775c-0.398-0.893-0.331-1.976,0.172-2.812
		C96.106,27.957,96.883,27.415,97.742,27.258z"/>
	<path fill="#2D2D2D" d="M97.47,38.424c1.65-0.518,3.556,0.633,3.86,2.333c0.364,1.545-0.683,3.234-2.223,3.606
		c-0.95,0.25-2.016,0.029-2.767-0.61c-0.83-0.679-1.249-1.813-1.065-2.868C95.452,39.733,96.348,38.732,97.47,38.424z"/>
	<path fill="#2D2D2D" d="M23.85,45.095c-0.03-0.48,0.317-0.954,0.795-1.038c0.335-0.051,0.676-0.028,1.015-0.031
		c4.318,0.007,8.636-0.003,12.955,0.005c0.577-0.035,1.091,0.488,1.047,1.064c0.003,1.521,0.003,3.042-0.002,4.564
		c1.786,1.007,3.592,1.979,5.378,2.985c0.315,0.153,0.198,0.559,0.22,0.841c0.03,0.25-0.118,0.558-0.414,0.494
		c-8.68,0.01-17.359-0.001-26.039,0.005c-0.204,0.002-0.484,0.005-0.527-0.253c-0.005-0.378-0.173-0.945,0.273-1.136
		c1.765-0.983,3.541-1.947,5.302-2.935C23.846,48.139,23.847,46.617,23.85,45.095z"/>
	<g>
		<path fill="#2D2D2D" d="M63.775,55.26c0.422-0.833,1.354-1.335,2.279-1.292c19.518,0.004,39.031-0.005,58.546,0.005
			c1.19-0.035,2.268,0.919,2.421,2.093v38.638c-0.121,0.794-0.626,1.525-1.364,1.861c-0.642,0.318-1.376,0.21-2.064,0.227
			c-19.225-0.002-38.45,0-57.675,0c-1.292,0.049-2.465-1.114-2.407-2.411c0-12.361,0.001-24.724-0.001-37.088
			C63.519,56.609,63.426,55.88,63.775,55.26z M67.656,58.128c-0.001,11.502-0.001,23.003,0,34.502c18.406,0,36.814,0,55.221,0
			c0.002-11.499,0.002-23,0-34.502C104.471,58.128,86.063,58.128,67.656,58.128z M95.06,93.683
			c-0.448,0.084-0.816,0.489-0.843,0.949c-0.054,0.54,0.376,1.063,0.914,1.122c0.636,0.104,1.255-0.488,1.184-1.124
			C96.277,94.026,95.652,93.546,95.06,93.683z"/>
	</g>
	<path fill="#2D2D2D" d="M92.714,62.999c1.423-0.82,3.206-0.984,4.75-0.42c1.75,0.624,3.12,2.063,3.907,3.722
		c1.558,3.261,1.102,7.496-1.4,10.166c-0.863,0.922-1.99,1.599-3.225,1.875c3.786,0.27,7.532,1.867,10.131,4.672
		c1.777,1.899,2.951,4.376,3.17,6.977c-9.665,0.002-19.331,0.002-28.996,0.002c0.207-2.498,1.295-4.885,2.957-6.749
		c2.601-2.946,6.442-4.606,10.325-4.911c-1.728-0.368-3.188-1.564-4.12-3.037c-1.449-2.285-1.756-5.218-0.963-7.792
		C89.822,65.661,91.011,63.953,92.714,62.999z"/>
	<path fill="#2D2D2D" d="M27.885,63.61c0.808-0.219,1.705-0.104,2.42,0.335c0.87,0.516,1.445,1.486,1.481,2.496
		c0.063,1.095-0.519,2.188-1.453,2.759c-1.098,0.699-2.632,0.587-3.615-0.268c-0.828-0.688-1.241-1.832-1.04-2.892
		C25.864,64.894,26.767,63.91,27.885,63.61z"/>
	<path fill="#2D2D2D" d="M28.257,74.637c0.901-0.133,1.857,0.146,2.525,0.771c0.715,0.637,1.091,1.622,0.991,2.572
		c-0.082,0.966-0.661,1.871-1.497,2.355c-0.724,0.438-1.629,0.534-2.438,0.305c-0.926-0.266-1.701-0.995-2.025-1.901
		c-0.293-0.797-0.236-1.718,0.158-2.472C26.416,75.399,27.292,74.77,28.257,74.637z"/>
	<path fill="#2D2D2D" d="M27.882,85.819c1.604-0.493,3.452,0.58,3.815,2.219c0.425,1.539-0.565,3.283-2.107,3.7
		c-1.06,0.323-2.28,0.019-3.059-0.771c-0.795-0.779-1.1-2.002-0.773-3.065C26.044,86.905,26.878,86.089,27.882,85.819z"/>
	<path fill="#2D2D2D" d="M39.055,85.801c0.959-0.247,2.035-0.002,2.777,0.66c0.874,0.74,1.255,1.987,0.962,3.09
		c-0.282,1.176-1.325,2.12-2.522,2.277c-1.047,0.172-2.162-0.253-2.83-1.075c-0.76-0.892-0.921-2.232-0.415-3.283
		C37.411,86.647,38.175,86.018,39.055,85.801z"/>
	<path fill="#2D2D2D" d="M50.106,85.815c1.049-0.295,2.242,0.021,3,0.806c0.909,0.894,1.145,2.373,0.579,3.513
		c-0.419,0.873-1.273,1.525-2.23,1.683c-0.939,0.174-1.95-0.121-2.642-0.777c-0.748-0.685-1.107-1.756-0.935-2.754
		C48.052,87.117,48.967,86.111,50.106,85.815z"/>
	<path fill="#2D2D2D" d="M87.641,98.308c0.224-0.255,0.573-0.316,0.898-0.313c4.146,0.004,8.295,0.002,12.443,0.002
		c0.462,0.007,0.929-0.032,1.391,0.029c0.488,0.075,0.83,0.563,0.797,1.049c0.011,1.519,0,3.036,0.003,4.556
		c1.767,0.985,3.543,1.952,5.31,2.939c0.441,0.198,0.235,0.765,0.282,1.146c-0.058,0.063-0.172,0.19-0.231,0.253h-26.52
		c-0.37-0.292-0.279-0.838-0.178-1.238c0.307-0.256,0.684-0.415,1.028-0.611c1.499-0.833,3.002-1.654,4.497-2.491
		c-0.007-1.435,0.004-2.87-0.007-4.306C87.354,98.969,87.365,98.567,87.641,98.308z"/>
</g>
</svg>
