<?xml version="1.0" encoding="utf-8"?>
<!-- Generator: Adobe Illustrator 16.0.0, SVG Export Plug-In . SVG Version: 6.00 Build 0)  -->
<!DOCTYPE svg PUBLIC "-//W3C//DTD SVG 1.1//EN" "http://www.w3.org/Graphics/SVG/1.1/DTD/svg11.dtd">
<svg version="1.1" id="Layer_1" xmlns="http://www.w3.org/2000/svg" xmlns:xlink="http://www.w3.org/1999/xlink" x="0px" y="0px"
	 width="130px" height="108px" viewBox="0 0 130 108" enable-background="new 0 0 130 108" xml:space="preserve">
<g>
	<g>
		<path fill="#2D2D2D" d="M17.591,8.295h94.645c0.844,0.088,1.707,0.317,2.38,0.863c0.973,0.739,1.535,1.954,1.51,3.17
			c-0.003,21.637,0.001,43.272-0.003,64.908c-34.074,0.002-68.15,0.002-102.225,0c-0.005-21.637,0-43.274-0.002-64.912
			c-0.024-1.101,0.433-2.203,1.249-2.946C15.805,8.737,16.703,8.442,17.591,8.295z M64.674,10.585
			c-0.615,0.174-0.994,0.92-0.733,1.514c0.199,0.546,0.851,0.868,1.406,0.684c0.59-0.169,0.969-0.863,0.758-1.447
			C65.93,10.752,65.254,10.39,64.674,10.585z M20.576,15.026c0,18.51,0,37.021,0,55.53c29.623,0.002,59.247,0.002,88.87,0
			c-0.01-18.512,0.019-37.027-0.013-55.54C79.813,15.034,50.195,15.016,20.576,15.026z"/>
	</g>
	<path fill="#2D2D2D" d="M36.319,36.319c0.321-0.102,0.673-0.097,0.998-0.019c0.831,0.213,0.784,1.658-0.063,1.815
		c-0.455,0.081-1.05,0.085-1.337-0.346C35.661,37.292,35.734,36.509,36.319,36.319z"/>
	<path fill="#2D2D2D" d="M53.045,37.025c0.333-0.533,0.976-0.755,1.569-0.818c0.805-0.073,1.631-0.014,2.394,0.267
		c-0.163,0.479-0.338,0.952-0.485,1.436c-0.493-0.09-1.028-0.285-1.516-0.082c-0.418,0.237-0.367,0.79-0.367,1.203
		c0.556-0.002,1.11,0.001,1.666-0.003c0.017,0.482,0.009,0.964,0.009,1.447c-0.558,0.002-1.114,0.001-1.672,0.001
		c-0.004,1.885,0.001,3.77-0.001,5.654c-0.651,0.002-1.302,0.003-1.952-0.001c0.003-1.884,0.001-3.768,0.001-5.652
		c-0.359,0-0.716-0.001-1.074-0.004c0-0.313,0-0.625,0.005-0.938c0.358-0.166,0.714-0.339,1.069-0.515
		C52.683,38.344,52.663,37.614,53.045,37.025z"/>
	<path fill="#2D2D2D" d="M90.74,36.364c0.399-0.001,0.799-0.001,1.2,0c0.003,3.797,0.003,7.593,0,11.39
		c-0.402,0.002-0.805,0.014-1.207-0.012C90.745,43.95,90.733,40.157,90.74,36.364z"/>
	<path fill="#2D2D2D" d="M42.366,39.083c0.485-0.239,1.041-0.195,1.563-0.156c-0.017,0.615-0.095,1.225-0.127,1.84
		c-0.64-0.094-1.354-0.08-1.895,0.324c-0.443,0.311-0.642,0.865-0.64,1.392c-0.005,1.216,0.001,2.433-0.002,3.648
		c-0.65,0.002-1.302,0.004-1.952-0.002c0.005-2.366,0-4.732,0.002-7.098c0.494-0.002,0.988-0.002,1.483,0
		c0.099,0.41,0.191,0.824,0.305,1.231C41.425,39.779,41.822,39.318,42.366,39.083z"/>
	<g>
		<path fill="#2D2D2D" d="M44.902,40.189c0.579-0.885,1.66-1.324,2.695-1.293c1.031-0.044,2.145,0.347,2.713,1.251
			c0.586,0.853,0.52,1.927,0.511,2.912c-1.53,0.005-3.062-0.005-4.593,0.005c0.025,0.73,0.442,1.512,1.206,1.673
			c1.018,0.198,2.069-0.068,2.998-0.494c-0.001,0.508-0.001,1.017,0,1.526c-1.1,0.532-2.376,0.594-3.566,0.399
			c-1.206-0.215-2.232-1.173-2.477-2.381C44.156,42.59,44.21,41.237,44.902,40.189z M46.982,40.444
			c-0.48,0.261-0.648,0.822-0.705,1.329c0.91,0.002,1.82,0.005,2.73-0.001c-0.043-0.358-0.089-0.743-0.333-1.028
			C48.286,40.244,47.523,40.169,46.982,40.444z"/>
	</g>
	<path fill="#2D2D2D" d="M60.442,39.095c0.496-0.248,1.066-0.221,1.602-0.155c-0.051,0.61-0.094,1.22-0.149,1.83
		c-0.643-0.101-1.365-0.078-1.904,0.333c-0.429,0.316-0.628,0.862-0.62,1.383c0,1.214,0,2.43,0.001,3.644
		c-0.65,0.005-1.301,0.003-1.95,0.001c-0.003-2.366,0-4.731-0.002-7.098c0.492-0.005,0.985-0.002,1.478-0.002
		c0.102,0.41,0.197,0.824,0.302,1.236C59.524,39.794,59.904,39.329,60.442,39.095z"/>
	<g>
		<path fill="#2D2D2D" d="M63.238,39.524c1.056-0.576,2.299-0.737,3.483-0.602c0.688,0.094,1.407,0.375,1.812,0.969
			c0.313,0.452,0.402,1.018,0.396,1.558c-0.006,1.56,0,3.122-0.003,4.682c-0.461,0-0.924,0.014-1.384-0.014
			c-0.114-0.321-0.237-0.637-0.358-0.954c-0.389,0.451-0.849,0.892-1.454,1.013c-0.815,0.156-1.776,0.181-2.446-0.389
			c-0.643-0.537-0.778-1.459-0.659-2.248c0.083-0.592,0.484-1.116,1.026-1.362c1.04-0.501,2.226-0.425,3.348-0.47
			c0.02-0.48-0.039-1.113-0.572-1.298c-0.861-0.248-1.746,0.112-2.542,0.425C63.671,40.396,63.464,39.956,63.238,39.524z
			 M65.051,43.157c-0.58,0.307-0.667,1.375,0.009,1.614c0.594,0.173,1.336,0.024,1.696-0.515c0.29-0.403,0.236-0.924,0.237-1.393
			C66.344,42.89,65.639,42.823,65.051,43.157z"/>
	</g>
	<path fill="#2D2D2D" d="M71.927,39.959c0.652-1.045,2.045-1.26,3.152-0.933c0.53,0.127,0.902,0.542,1.232,0.948
		c0.371-0.556,0.967-0.948,1.633-1.042c0.797-0.098,1.706-0.035,2.325,0.533c0.54,0.503,0.655,1.286,0.669,1.988
		c0.002,1.559,0,3.118,0,4.676c-0.655,0.002-1.313,0.004-1.968-0.001c0.001-1.427,0.001-2.856,0-4.285
		c-0.012-0.47-0.104-1.057-0.572-1.29c-0.518-0.225-1.211-0.083-1.536,0.4c-0.307,0.451-0.342,1.021-0.359,1.55
		c-0.004,1.209,0,2.417-0.002,3.625c-0.65,0.002-1.3,0.004-1.95-0.001c0-1.429,0.003-2.859-0.001-4.289
		c-0.017-0.467-0.106-1.052-0.569-1.285c-0.545-0.242-1.291-0.066-1.582,0.481c-0.276,0.525-0.302,1.135-0.316,1.714
		c-0.004,1.128,0.001,2.254-0.002,3.379c-0.649,0.002-1.301,0.004-1.95-0.001c0.002-2.367,0-4.733,0.001-7.099
		c0.498-0.002,0.998,0,1.497-0.002C71.718,39.342,71.795,39.661,71.927,39.959z"/>
	<g>
		<path fill="#2D2D2D" d="M83.224,40.027c0.63-0.828,1.708-1.182,2.72-1.131c0.998-0.018,2.042,0.406,2.585,1.273
			c0.564,0.852,0.512,1.914,0.504,2.889c-1.534,0.008-3.066-0.006-4.6,0.008c0.021,0.725,0.436,1.497,1.187,1.67
			c1.021,0.2,2.077-0.059,3.006-0.489c0.001,0.512,0.006,1.024-0.006,1.536c-1.115,0.522-2.402,0.59-3.602,0.375
			c-1.227-0.23-2.247-1.251-2.451-2.487C82.35,42.441,82.44,41.049,83.224,40.027z M85.203,40.432
			c-0.491,0.254-0.669,0.829-0.723,1.342c0.909,0.004,1.82,0.004,2.729,0c-0.044-0.352-0.088-0.73-0.321-1.015
			C86.509,40.253,85.75,40.17,85.203,40.432z"/>
	</g>
	<path fill="#2D2D2D" d="M96.205,38.952c1.022-0.144,2.097-0.033,3.033,0.418c-0.196,0.507-0.376,1.021-0.591,1.521
		c-0.676-0.273-1.433-0.572-2.164-0.337c-0.589,0.2-0.86,0.838-0.925,1.411c-0.078,0.697-0.081,1.457,0.261,2.089
		c0.225,0.424,0.709,0.652,1.179,0.634c0.721,0.031,1.415-0.226,2.016-0.61c-0.003,0.558-0.002,1.115,0,1.673
		c-0.946,0.6-2.137,0.595-3.203,0.414c-1.064-0.189-1.909-1.069-2.126-2.115c-0.243-1.168-0.256-2.46,0.284-3.551
		C94.39,39.644,95.272,39.081,96.205,38.952z"/>
	<path fill="#2D2D2D" d="M23.846,39.03c0.65-0.002,1.3-0.002,1.948,0.001c0.463,1.814,1.021,3.612,1.22,5.48
		c0.206-1.868,0.767-3.666,1.223-5.483c0.717,0.002,1.435,0,2.151,0.002c0.409,1.817,0.99,3.609,1.15,5.474
		c0.181-0.887,0.288-1.79,0.526-2.664c0.256-0.936,0.505-1.873,0.762-2.809c0.638-0.004,1.278-0.001,1.917-0.001
		c-0.672,2.363-1.372,4.718-2.029,7.085c-0.713,0.033-1.428,0.009-2.141,0.014c-0.41-1.884-0.839-3.762-1.292-5.636
		c-0.463,1.873-0.87,3.759-1.313,5.636c-0.701,0.002-1.402,0.003-2.104,0C25.192,43.764,24.519,41.396,23.846,39.03z"/>
	<path fill="#2D2D2D" d="M35.872,39.03c0.648-0.002,1.297,0,1.946-0.002c0.005,2.368,0,4.734,0.002,7.102
		c-0.649,0.003-1.3,0.002-1.95,0C35.869,43.764,35.868,41.396,35.872,39.03z"/>
	<path fill="#2D2D2D" d="M102.191,39.05c1.143-0.295,2.388-0.179,3.464,0.307c-0.169,0.518-0.379,1.02-0.567,1.53
		c-0.699-0.263-1.477-0.586-2.222-0.318c-0.525,0.196-0.781,0.758-0.863,1.277c-0.099,0.661-0.102,1.36,0.136,1.993
		c0.149,0.411,0.511,0.743,0.947,0.82c0.823,0.128,1.661-0.129,2.348-0.582c-0.002,0.557-0.005,1.114,0.001,1.672
		c-0.881,0.578-1.991,0.578-3.001,0.455c-0.948-0.127-1.827-0.754-2.16-1.664c-0.403-1.063-0.412-2.261-0.146-3.358
		C100.373,40.169,101.174,39.312,102.191,39.05z"/>
	<g>
		<path fill="#2D2D2D" d="M1.187,92.577c4.248-4.218,8.471-8.459,12.723-12.674c34.068,0.003,68.135,0.002,102.204,0.002
			c4.51,4.476,8.998,8.973,13.501,13.451c0.212,0.21,0.336,0.485,0.408,0.771v0.457c-0.116,0.668-0.736,1.205-1.421,1.165
			c-42.396,0-84.788,0-127.183,0.002C0.735,95.79,0.125,95.254,0,94.595v-0.454C0.125,93.454,0.744,93.054,1.187,92.577z
			 M14.563,87.603c-0.565,0.675,0.042,1.813,0.913,1.744c12.042,0.002,24.083,0,36.124,0.002c-0.072,0.373-0.191,0.738-0.223,1.119
			c0.025,0.375,0.388,0.664,0.758,0.618c8.585,0,17.17,0,25.756,0c0.363,0.042,0.728-0.24,0.747-0.61
			c-0.03-0.383-0.147-0.753-0.22-1.127c12.042-0.002,24.084,0,36.127-0.002c0.593,0.031,1.136-0.495,1.129-1.089
			c0.015-0.33-0.165-0.624-0.379-0.856c-1.195-1.381-2.376-2.773-3.574-4.15c-31.142,0.004-62.282,0.004-93.424,0
			C17.05,84.697,15.799,86.145,14.563,87.603z"/>
	</g>
	<g>
		<path fill="#2D2D2D" d="M0,96.08c0.409,0.311,0.914,0.506,1.434,0.485c17.435-0.002,34.871-0.003,52.306,0
			c0.269,0.507,0.773,0.912,1.369,0.906c6.6,0.005,13.198,0.005,19.798,0c0.603,0.013,1.105-0.402,1.382-0.908
			c17.217,0.001,34.435-0.001,51.651,0.001c0.723,0.042,1.501,0.004,2.083-0.483v1.772c-0.132,0.971-0.666,1.889-1.497,2.423
			c-0.491,0.341-1.084,0.471-1.657,0.595H3.344c-0.828-0.082-1.671-0.343-2.281-0.934C0.464,99.392,0.098,98.622,0,97.822V96.08z
			 M11.461,98.039c-0.497,0.203-0.582,0.958-0.12,1.247c0.405,0.316,1.06,0.026,1.117-0.479
			C12.567,98.281,11.948,97.788,11.461,98.039z M14.976,98.033c-0.486,0.165-0.61,0.881-0.208,1.201
			c0.36,0.35,1.028,0.161,1.161-0.319C16.133,98.374,15.502,97.778,14.976,98.033z M18.376,98.079
			c-0.496,0.256-0.459,1.06,0.059,1.269c0.463,0.248,1.067-0.174,1.022-0.689C19.445,98.147,18.811,97.787,18.376,98.079z"/>
	</g>
</g>
</svg>
