<?xml version="1.0" encoding="utf-8"?>
<!-- Generator: Adobe Illustrator 16.0.0, SVG Export Plug-In . SVG Version: 6.00 Build 0)  -->
<!DOCTYPE svg PUBLIC "-//W3C//DTD SVG 1.1//EN" "http://www.w3.org/Graphics/SVG/1.1/DTD/svg11.dtd">
<svg version="1.1" id="Layer_1" xmlns="http://www.w3.org/2000/svg" xmlns:xlink="http://www.w3.org/1999/xlink" x="0px" y="0px"
	 width="130px" height="108px" viewBox="0 0 130 108" enable-background="new 0 0 130 108" xml:space="preserve">
<g>
	<path fill="#2D2D2D" d="M32.414,0.214h54.474c0.284-0.019,0.446,0.227,0.634,0.39c5.218,5.243,10.474,10.452,15.682,15.706
		c-0.003,11.361,0.001,22.722-0.003,34.082c-1.498,0.001-2.997,0.001-4.495,0c-0.005-11.359,0.001-22.717-0.003-34.078
		c-1.198,0-2.397,0-3.596,0c-1.165-0.014-2.367,0.1-3.49-0.29c-2.497-0.752-4.381-3.165-4.475-5.777
		c-0.018-1.833,0-3.667-0.009-5.501c-18.17,0.001-36.341-0.003-54.511,0.001c-0.722-0.029-1.44,0.356-1.791,0.991
		c-0.319,0.545-0.243,1.199-0.253,1.804c0.001,14.285,0.002,28.567,0,42.85c-1.499,0.001-2.998,0.001-4.497,0
		c-0.002-14.625,0-29.253-0.001-43.879c0.018-1.766,0.838-3.492,2.158-4.655C29.375,0.825,30.89,0.278,32.414,0.214z"/>
	<path fill="#2D2D2D" d="M37.688,17.383c0.438-0.17,0.919-0.112,1.379-0.122c13.836,0.001,27.673-0.001,41.509,0.001
		c0.713-0.046,1.434,0.4,1.659,1.089c0.367,0.949-0.373,2.109-1.397,2.136c-14.183,0.009-28.367,0-42.549,0.005
		c-0.828,0.036-1.582-0.688-1.607-1.512C36.626,18.304,37.056,17.627,37.688,17.383z"/>
	<path fill="#2D2D2D" d="M38.069,25.964c17.645-0.024,35.293-0.002,52.94-0.01c0.916-0.039,1.709,0.856,1.591,1.76
		c-0.057,0.863-0.891,1.54-1.745,1.469c-17.438,0.002-34.874-0.001-52.312,0.001c-0.497,0.021-1.023-0.098-1.38-0.464
		c-0.553-0.525-0.645-1.451-0.205-2.074C37.209,26.278,37.622,26.013,38.069,25.964z"/>
	<g>
		<path fill="#2D2D2D" d="M5.441,31.899c2.845-2.693,6.706-4.269,10.621-4.342c1.84-0.027,3.679-0.005,5.519-0.012
			c0.003,8.416,0,16.832,0.001,25.249c-0.034,0.699,0.306,1.41,0.911,1.778c0.564,0.375,1.27,0.295,1.913,0.303
			c26.779-0.002,53.558-0.001,80.338-0.001c0.509-0.008,1.026,0.039,1.527-0.075c0.822-0.21,1.447-1.02,1.415-1.872
			c-0.001-8.46-0.003-16.921,0.001-25.382c1.032-0.002,2.064,0,3.099-0.001c1.496,0.006,3.003-0.051,4.488,0.189
			c3.401,0.506,6.618,2.154,9.026,4.609c2.727,2.737,4.357,6.485,4.609,10.332v45.012c-0.133,2.242-2.154,4.154-4.404,4.152
			c-7.742,0.014-15.487,0.002-23.229,0.004c-0.002-3.121-0.003-6.245,0-9.366c0.134-1.116-0.775-2.232-1.921-2.21
			c-0.854-0.021-1.708-0.002-2.562-0.006c-0.006,7.077,0.002,14.156-0.005,21.234c-0.002,1.81-0.809,3.6-2.171,4.793
			c-1.185,1.073-2.777,1.616-4.361,1.639H39.161c-1.69,0.007-3.4-0.576-4.628-1.76c-1.246-1.156-2.006-2.827-2.026-4.53
			c0-7.125,0.001-14.251-0.001-21.377c-0.859,0.006-1.716-0.015-2.575,0.007c-0.73-0.002-1.433,0.448-1.735,1.113
			c-0.187,0.379-0.188,0.812-0.19,1.227c0.005,3.078,0.002,6.158,0.001,9.236c-7.498,0.003-14.996-0.001-22.495,0.003
			c-0.794,0.015-1.612-0.025-2.354-0.345c-1.541-0.614-2.653-2.137-2.786-3.789V42.818C0.583,38.705,2.418,34.701,5.441,31.899z
			 M117.524,42.982c-1.395,0.329-2.457,1.684-2.422,3.12c-0.021,1.368,0.949,2.664,2.258,3.05c1.18,0.384,2.556-0.017,3.36-0.955
			c0.764-0.863,1.005-2.147,0.59-3.225C120.784,43.48,119.056,42.558,117.524,42.982z M37.007,80.261
			c-0.002,6.824,0,13.646-0.002,20.47c0.003,0.563-0.047,1.165,0.25,1.669c0.348,0.642,1.069,1.023,1.793,0.996
			c16.8,0.004,33.599,0,50.4,0.001c0.541-0.014,1.106,0.06,1.622-0.149c0.742-0.291,1.232-1.072,1.204-1.866
			c0.004-7.039,0.002-14.079,0.001-21.12C73.853,80.261,55.43,80.261,37.007,80.261z M116.345,80.31
			c-0.831,0.172-1.414,1.076-1.206,1.904c0.147,0.705,0.827,1.262,1.552,1.245c1.076-0.001,2.151,0,3.228,0
			c0.551,0.014,1.083-0.304,1.364-0.772c0.44-0.689,0.217-1.683-0.462-2.131c-0.563-0.412-1.293-0.271-1.94-0.295
			C118.035,80.286,117.184,80.204,116.345,80.31z"/>
	</g>
	<path fill="#2D2D2D" d="M37.687,34.735c0.438-0.169,0.919-0.111,1.379-0.122c17.262,0.002,34.525-0.001,51.788,0.002
		c0.552-0.026,1.122,0.209,1.445,0.669c0.401,0.536,0.411,1.325,0.023,1.87c-0.29,0.427-0.799,0.705-1.317,0.69
		c-17.575-0.002-35.151-0.001-52.727-0.001c-0.825,0.034-1.573-0.689-1.598-1.509C36.626,35.657,37.055,34.981,37.687,34.735z"/>
	<path fill="#2D2D2D" d="M38.082,43.315c17.636-0.02,35.276-0.001,52.914-0.01c0.921-0.045,1.724,0.852,1.604,1.762
		c-0.057,0.864-0.893,1.54-1.746,1.47c-17.479,0-34.957,0-52.434-0.002c-0.717,0.047-1.435-0.406-1.655-1.097
		C36.416,44.521,37.096,43.396,38.082,43.315z"/>
</g>
</svg>
