<?xml version="1.0" encoding="utf-8"?>
<!-- Generator: Adobe Illustrator 16.0.0, SVG Export Plug-In . SVG Version: 6.00 Build 0)  -->
<!DOCTYPE svg PUBLIC "-//W3C//DTD SVG 1.1//EN" "http://www.w3.org/Graphics/SVG/1.1/DTD/svg11.dtd">
<svg version="1.1" id="Layer_1" xmlns="http://www.w3.org/2000/svg" xmlns:xlink="http://www.w3.org/1999/xlink" x="0px" y="0px"
	 width="130px" height="108px" viewBox="0 0 130 108" enable-background="new 0 0 130 108" xml:space="preserve">
<g>
	<g>
		<path fill="#2D2D2D" d="M9.25,0.423h112.968c0.871,0.129,1.725,0.446,2.409,1.011c0.968,0.767,1.569,1.943,1.698,3.167v73.444
			c-0.192,2.253-2.218,4.163-4.49,4.152c-37.407,0.006-74.817-0.001-112.224,0.004C8.475,82.209,7.339,81.79,6.5,81.021
			c-0.854-0.747-1.341-1.828-1.523-2.936V4.565C5.111,3.761,5.373,2.96,5.865,2.303C6.643,1.214,7.92,0.524,9.25,0.423z
			 M12.913,8.352c0.006,21.975-0.01,43.95,0.008,65.925c35.159-0.018,70.318,0.015,105.477-0.018
			c-0.015-21.97-0.003-43.939-0.006-65.909C83.232,8.352,48.073,8.351,12.913,8.352z M65.083,76.303
			c-0.864,0.249-1.499,1.132-1.43,2.034c0.025,1.055,1.016,1.965,2.072,1.901c1.178,0.002,2.162-1.206,1.915-2.36
			C67.464,76.736,66.187,75.937,65.083,76.303z"/>
	</g>
	<g>
		<path fill="#2D2D2D" d="M59.278,14.534c4.158,0.001,8.316,0.001,12.474-0.001c0.027,1.932-0.036,3.866,0.027,5.798
			c1.514,0.429,2.979,1.026,4.36,1.78c1.349-1.318,2.662-2.671,4.011-3.988c2.937,2.949,5.89,5.88,8.822,8.832
			c-1.329,1.33-2.661,2.656-3.979,3.995c0.756,1.416,1.353,2.911,1.816,4.447c1.864-0.013,3.732-0.002,5.601-0.005
			c0,4.166,0,8.333,0,12.499c-1.921-0.001-3.838-0.001-5.758,0c-0.427,1.372-0.991,2.699-1.666,3.971
			c1.427,1.424,2.851,2.853,4.279,4.276c-2.933,2.951-5.889,5.88-8.819,8.833c-1.445-1.411-2.856-2.858-4.294-4.278
			c-1.387,0.748-2.852,1.353-4.372,1.777c-0.065,1.887-0.002,3.774-0.028,5.663c-4.158-0.005-8.315-0.002-12.473-0.002
			c0.004-1.917-0.012-3.836,0.009-5.751c-1.302-0.441-2.586-0.941-3.804-1.586c-1.386,1.397-2.777,2.795-4.18,4.178
			c-2.927-2.962-5.904-5.87-8.813-8.848c1.366-1.354,2.719-2.719,4.08-4.075c-0.735-1.319-1.313-2.721-1.769-4.16
			c-1.921,0.003-3.843-0.001-5.764,0.001c0.001-4.166,0-8.333,0.001-12.499c1.871,0.003,3.741-0.008,5.61,0.005
			c0.424-1.482,1.03-2.899,1.697-4.285c-1.397-1.374-2.771-2.768-4.16-4.15c2.935-2.938,5.862-5.885,8.814-8.804
			c0.238,0.151,0.42,0.375,0.621,0.572c1.153,1.166,2.325,2.314,3.475,3.485c1.336-0.717,2.729-1.33,4.182-1.772
			C59.279,18.473,59.278,16.503,59.278,14.534z M64.776,31.699c-2.45,0.229-4.784,1.446-6.389,3.309
			c-1.799,2.049-2.667,4.884-2.302,7.586c0.22,1.814,0.982,3.553,2.145,4.96c1.507,1.843,3.716,3.092,6.071,3.435
			c1.963,0.295,4.015-0.033,5.786-0.932c2.189-1.089,3.929-3.041,4.766-5.338c0.85-2.287,0.785-4.894-0.177-7.135
			c-0.852-2.028-2.423-3.739-4.359-4.777C68.635,31.889,66.68,31.523,64.776,31.699z"/>
	</g>
	<path fill="#2D2D2D" d="M64.384,36.676c2.126-0.649,4.597,0.385,5.627,2.353c1.149,2.011,0.585,4.788-1.265,6.184
		c-1.259,1.015-3.036,1.296-4.565,0.794c-1.34-0.438-2.457-1.494-2.982-2.801c-0.707-1.718-0.329-3.822,0.958-5.169
		C62.758,37.396,63.538,36.918,64.384,36.676z"/>
	<path fill="#2D2D2D" d="M78.946,93.625c3.562-0.015,7.123-0.021,10.684-0.076c-0.064,4.696-0.088,9.4-0.086,14.101
		c-8.27,0.075-16.54,0.13-24.81,0.177c-1.033,0.004-2.066-0.023-3.099,0.045c-5.292,0.014-10.585,0.076-15.878,0.083
		c-1.637,0.163-3.283,0.018-4.924,0.104c-1.169,0.023-2.341,0.002-3.511,0.013c-2.158-0.113-4.308-1.159-5.545-2.964
		c-1.276-1.749-1.586-4.106-0.96-6.16c0.659-2.146,2.385-3.925,4.514-4.636c0.949-0.378,1.976-0.345,2.977-0.411
		c6.654-0.024,13.307-0.076,19.959-0.086c1.784-0.128,3.571-0.025,5.356-0.078c3.98,0.002,7.962-0.044,11.94-0.051
		C76.689,93.586,77.817,93.636,78.946,93.625z"/>
	<path fill="#2D2D2D" d="M92.388,93.524c3.768,2.331,7.524,4.677,11.294,7.006c-3.813,2.328-7.562,4.756-11.356,7.111
		C92.329,102.936,92.378,98.231,92.388,93.524z"/>
</g>
</svg>
