<?xml version="1.0" encoding="utf-8"?>
<!-- Generator: Adobe Illustrator 16.0.0, SVG Export Plug-In . SVG Version: 6.00 Build 0)  -->
<!DOCTYPE svg PUBLIC "-//W3C//DTD SVG 1.1//EN" "http://www.w3.org/Graphics/SVG/1.1/DTD/svg11.dtd">
<svg version="1.1" id="Layer_1" xmlns="http://www.w3.org/2000/svg" xmlns:xlink="http://www.w3.org/1999/xlink" x="0px" y="0px"
	 width="130px" height="108px" viewBox="0 0 130 108" enable-background="new 0 0 130 108" xml:space="preserve">
<g>
	<path fill="#2D2D2D" stroke="#2D2D2D" stroke-width="0.0938" stroke-miterlimit="10.43" d="M85.513,7.891
		c1.166-1.347,2.929-2.152,4.714-2.14c10.713,0.001,21.424,0,32.138,0.001c1.128-0.01,2.293-0.053,3.366,0.36
		c2.31,0.798,4.021,3.052,4.149,5.495v82.011c-0.122,1.171-0.542,2.314-1.26,3.25c-1.126,1.5-2.954,2.446-4.83,2.476
		c-0.761,0.005-1.521-0.004-2.282,0.001c-0.003,0.456,0.028,0.935-0.159,1.363c-0.294,0.733-1.037,1.267-1.833,1.285
		c-0.84,0.011-1.808,0.132-2.484-0.479c-0.656-0.514-0.811-1.386-0.746-2.169c-6.238,0-12.477-0.004-18.718,0.003
		c-0.005,0.472,0.029,0.97-0.181,1.41c-0.311,0.723-1.063,1.234-1.853,1.238c-0.834,0.012-1.794,0.117-2.458-0.498
		c-0.644-0.511-0.795-1.376-0.729-2.15c-1.396-0.046-2.843,0.155-4.181-0.345c-2.382-0.8-4.137-3.151-4.195-5.667
		c-0.027-1.961-0.007-3.92-0.012-5.88c0.874-0.003,1.748-0.002,2.623,0c0.001,1.614,0,3.229,0,4.844
		c-0.008,0.707-0.035,1.44,0.244,2.106c0.52,1.377,1.933,2.347,3.404,2.326c11.098,0.006,22.194,0.003,33.292,0.003
		c1.983,0.099,3.807-1.66,3.749-3.651c0.001-26.741,0-53.484,0.001-80.226c-0.005-0.603,0.041-1.22-0.129-1.807
		c-0.387-1.49-1.813-2.647-3.357-2.673c-11.231-0.004-22.462-0.001-33.692-0.001c-1.831,0.01-3.463,1.624-3.506,3.452
		c-0.017,1.288,0,2.579-0.006,3.869c-0.875,0.001-1.749,0.001-2.623,0c0.001-1.246-0.007-2.493,0.004-3.737
		C83.972,10.474,84.529,9.002,85.513,7.891z"/>
	<g>
		<path fill="#2D2D2D" stroke="#2D2D2D" stroke-width="0.0938" stroke-miterlimit="10.43" d="M89.447,9.505
			c0.46-0.154,0.954-0.101,1.433-0.108c10.926,0,21.855,0,32.782,0c1.422-0.041,2.669,1.276,2.589,2.689
			c-0.001,26.997,0.002,53.993-0.001,80.989c0.023,1.066-0.678,2.1-1.681,2.463c-0.497,0.206-1.043,0.16-1.568,0.162
			c-10.962,0-21.926,0.001-32.89,0c-1.323-0.003-2.487-1.184-2.504-2.5c-0.012-1.917-0.002-3.83-0.004-5.744
			c1.867-0.003,3.733,0,5.599-0.002c1.258-0.015,2.556,0.108,3.764-0.332c2.523-0.814,4.387-3.313,4.404-5.972
			c0.003-15.82,0-31.637,0.002-47.457c6.223-0.001,12.445,0.002,18.666-0.001c0.828,0,1.608-0.564,1.898-1.333
			c0.568-1.324-0.61-2.916-2.034-2.812c-6.175-0.002-12.353-0.001-18.53-0.001c-0.002-1.279-0.002-2.559,0-3.839
			c6.221-0.001,12.442,0.006,18.661-0.003c1.049,0,1.991-0.902,2.036-1.949c0.092-1.128-0.893-2.205-2.029-2.193
			c-6.229-0.006-12.458,0-18.687-0.002c-0.139-1.436-0.771-2.808-1.76-3.855c6.808,0.003,13.618,0,20.428,0
			c1.253,0.033,2.31-1.271,2.006-2.492c-0.191-0.977-1.148-1.7-2.137-1.653c-8.682,0.001-17.363-0.007-26.043,0.005
			c-1.141-0.02-2.106,1.012-2.083,2.136c-1.388-0.01-2.773-0.001-4.161-0.004c0-1.246-0.005-2.489,0.002-3.735
			C87.601,10.856,88.389,9.815,89.447,9.505z M106.221,67.89c-0.955,0.219-1.785,0.916-2.159,1.823
			c-0.367,0.849-0.32,1.861,0.124,2.672c0.48,0.916,1.447,1.554,2.48,1.636c0.904,0.081,1.83-0.267,2.467-0.91
			c0.789-0.786,1.11-2.011,0.774-3.078C109.483,68.502,107.766,67.486,106.221,67.89z M106.614,77.734
			c-0.458,0.141-0.761,0.615-0.725,1.09c0.001,0.995-0.005,1.993,0.004,2.989c-0.016,0.514,0.402,0.989,0.914,1.047
			c0.551,0.079,1.103-0.374,1.143-0.926c0.027-1.083,0.015-2.165,0.006-3.247C107.958,78.031,107.236,77.507,106.614,77.734z"/>
	</g>
	<g>
		<path fill="#2D2D2D" stroke="#2D2D2D" stroke-width="0.0938" stroke-miterlimit="10.43" d="M0.296,21.714
			c0.204-1.783,1.809-3.286,3.619-3.276c30.108-0.005,60.217,0,90.326-0.004c0.659-0.007,1.341-0.022,1.965,0.228
			c1.403,0.494,2.421,1.908,2.427,3.4c0.006,19.439,0,38.88,0.003,58.322c0.016,0.683,0.008,1.386-0.271,2.022
			c-0.547,1.384-1.983,2.346-3.473,2.313c-30.321-0.002-60.644,0.002-90.966-0.002c-1.836,0.01-3.477-1.532-3.628-3.355V21.714z
			 M6.711,24.866c-0.001,17.807-0.001,35.614,0,53.422c28.498-0.001,56.994,0,85.493-0.001c0-17.807,0-35.615-0.002-53.421
			C63.705,24.865,35.208,24.865,6.711,24.866z M48.955,79.951c-0.761,0.234-1.262,1.077-1.093,1.856
			c0.145,0.87,1.085,1.497,1.945,1.287c0.849-0.17,1.459-1.09,1.249-1.936C50.88,80.246,49.836,79.63,48.955,79.951z"/>
	</g>
	<g>
		<path fill="#2D2D2D" stroke="#2D2D2D" stroke-width="0.0938" stroke-miterlimit="10.43" d="M28.81,27.917
			c2.177,0.002,4.354,0.002,6.531,0c0,1.009,0.001,2.02-0.002,3.029c0.795,0.237,1.567,0.548,2.297,0.944
			c0.695-0.697,1.39-1.394,2.086-2.089c1.547,1.539,3.09,3.083,4.627,4.633c-0.701,0.687-1.385,1.389-2.081,2.081
			c0.38,0.752,0.709,1.529,0.943,2.341c0.979-0.001,1.957-0.003,2.936,0c-0.002,2.182-0.001,4.364-0.001,6.546
			c-1.006,0.006-2.013-0.007-3.019,0.007c-0.216,0.72-0.517,1.413-0.867,2.075c0.745,0.751,1.494,1.496,2.241,2.246
			c-1.55,1.537-3.083,3.087-4.628,4.628c-0.742-0.749-1.488-1.497-2.236-2.243c-0.73,0.395-1.501,0.703-2.296,0.94
			c0,0.984,0,1.97,0,2.954c-2.177,0-4.355,0-6.532,0c0.006-1-0.01-2.002,0.009-3c-0.677-0.249-1.358-0.498-1.996-0.842
			c-0.729,0.731-1.458,1.459-2.186,2.189c-1.546-1.54-3.081-3.091-4.627-4.629c0.716-0.712,1.427-1.433,2.144-2.144
			c-0.378-0.693-0.687-1.425-0.922-2.18c-1.007-0.005-2.013,0-3.02-0.003c0-2.182,0.001-4.364-0.001-6.546
			c0.979-0.003,1.958-0.001,2.938,0c0.23-0.771,0.524-1.524,0.898-2.238c-0.735-0.725-1.458-1.46-2.188-2.187
			c1.547-1.539,3.084-3.088,4.627-4.63c0.711,0.714,1.426,1.426,2.137,2.14c0.697-0.377,1.429-0.692,2.188-0.931
			C28.811,29.979,28.809,28.948,28.81,27.917z M30.93,37.047c-1.222,0.307-2.313,1.092-3.002,2.146
			c-0.768,1.16-1.029,2.642-0.692,3.991c0.314,1.336,1.202,2.52,2.388,3.207c1.108,0.652,2.47,0.858,3.718,0.556
			c1.271-0.292,2.411-1.1,3.113-2.198c0.792-1.211,1.023-2.769,0.619-4.158c-0.341-1.212-1.153-2.28-2.227-2.941
			C33.694,36.926,32.246,36.71,30.93,37.047z"/>
	</g>
	<g>
		<path fill="#2D2D2D" stroke="#2D2D2D" stroke-width="0.0938" stroke-miterlimit="10.43" d="M59.697,34.273
			c2.776-0.002,5.55-0.001,8.327-0.001c0,1.288-0.002,2.577,0,3.864c1.007,0.3,1.991,0.692,2.915,1.197
			c0.893-0.881,1.772-1.78,2.665-2.664c1.961,1.967,3.922,3.932,5.884,5.896c-0.881,0.896-1.778,1.778-2.654,2.679
			c0.513,0.942,0.897,1.944,1.212,2.966c1.244-0.007,2.488-0.002,3.73-0.002c0,2.782-0.002,5.563,0.001,8.346
			c-1.279,0.004-2.561-0.002-3.839,0.002c-0.281,0.92-0.665,1.806-1.108,2.656c0.957,0.945,1.904,1.9,2.853,2.854
			c-1.975,1.956-3.908,3.956-5.905,5.89c-0.935-0.959-1.89-1.898-2.834-2.851c-0.93,0.511-1.921,0.89-2.929,1.211
			c0.019,1.251,0.006,2.503,0.006,3.756c-2.773-0.002-5.545-0.002-8.319,0c-0.006-1.283-0.002-2.567-0.001-3.848
			c-0.87-0.28-1.717-0.625-2.524-1.05c-0.935,0.925-1.853,1.867-2.791,2.788c-1.958-1.97-3.919-3.933-5.879-5.897
			c0.907-0.91,1.814-1.823,2.724-2.731c-0.482-0.884-0.876-1.817-1.175-2.778c-1.283-0.007-2.564,0.008-3.848-0.007
			c0.007-2.781,0.003-5.56,0.003-8.341c1.248-0.002,2.496,0,3.744,0c0.286-0.981,0.66-1.935,1.138-2.84
			c-0.926-0.933-1.859-1.86-2.783-2.795c1.963-1.964,3.922-3.933,5.884-5.898c0.908,0.911,1.815,1.822,2.724,2.731
			c0.885-0.485,1.815-0.888,2.78-1.188C59.698,36.903,59.698,35.589,59.697,34.273z M62.678,45.844
			c-1.322,0.272-2.55,0.976-3.458,1.976c-1.283,1.38-1.901,3.343-1.649,5.208c0.198,1.622,1.046,3.147,2.309,4.184
			c1.254,1.046,2.918,1.584,4.55,1.468c1.8-0.112,3.532-1.029,4.643-2.452c1.111-1.391,1.603-3.257,1.321-5.015
			c-0.27-1.845-1.391-3.536-2.971-4.519C66.028,45.811,64.291,45.504,62.678,45.844z"/>
	</g>
	<path fill="#2D2D2D" stroke="#2D2D2D" stroke-width="0.0938" stroke-miterlimit="10.43" d="M31.463,39.528
		c0.795-0.227,1.701-0.06,2.335,0.478c0.708,0.568,1.066,1.529,0.899,2.421c-0.137,0.834-0.722,1.579-1.5,1.91
		c-0.901,0.4-2.029,0.214-2.746-0.464c-0.683-0.616-0.983-1.617-0.75-2.506C29.906,40.498,30.607,39.775,31.463,39.528z"/>
	<path fill="#2D2D2D" stroke="#2D2D2D" stroke-width="0.0938" stroke-miterlimit="10.43" d="M63.169,49.045
		c1.432-0.404,3.065,0.331,3.722,1.664c0.581,1.107,0.444,2.54-0.341,3.513c-0.778,1.021-2.187,1.478-3.419,1.124
		c-1.366-0.354-2.397-1.684-2.387-3.096C60.69,50.79,61.752,49.394,63.169,49.045z"/>
	<g>
		<path fill="#2D2D2D" stroke="#2D2D2D" stroke-width="0.0938" stroke-miterlimit="10.43" d="M37.215,58.554
			c1.035-0.001,2.07-0.003,3.105,0.001c-0.002,0.477-0.006,0.954,0.001,1.433c0.373,0.119,0.734,0.263,1.079,0.446
			c0.346-0.318,0.666-0.662,1.001-0.99c0.729,0.737,1.465,1.466,2.195,2.204c-0.335,0.322-0.665,0.655-0.991,0.99
			c0.183,0.354,0.332,0.724,0.451,1.105c0.462,0.001,0.926,0,1.39,0.002c-0.004,1.033-0.004,2.069-0.002,3.106
			c-0.476,0.003-0.952-0.003-1.429,0.005c-0.112,0.339-0.251,0.665-0.413,0.982c0.354,0.356,0.71,0.712,1.064,1.067
			c-0.734,0.729-1.468,1.461-2.194,2.2c-0.355-0.354-0.708-0.711-1.065-1.064c-0.35,0.178-0.716,0.325-1.09,0.45
			c0,0.464,0,0.926,0.001,1.391c-1.034,0.004-2.069,0.001-3.104,0.001c-0.001-0.479,0.002-0.955-0.001-1.431
			c-0.323-0.106-0.636-0.237-0.941-0.386c-0.35,0.343-0.691,0.693-1.041,1.036c-0.722-0.746-1.474-1.461-2.189-2.213
			c0.35-0.325,0.681-0.669,1.018-1.009c-0.181-0.328-0.326-0.674-0.445-1.029c-0.475-0.001-0.951-0.001-1.426,0.002
			c-0.002-1.037,0.003-2.073-0.003-3.109c0.464-0.004,0.926-0.002,1.389,0c0.119-0.364,0.261-0.722,0.429-1.065
			c-0.349-0.344-0.692-0.691-1.041-1.034c0.736-0.732,1.467-1.465,2.196-2.2c0.341,0.337,0.677,0.679,1.017,1.017
			c0.335-0.176,0.682-0.322,1.038-0.447C37.215,59.527,37.214,59.04,37.215,58.554z M38.157,62.903
			c-0.967,0.264-1.705,1.181-1.75,2.186c-0.073,0.981,0.528,1.962,1.431,2.351c0.854,0.396,1.93,0.218,2.614-0.43
			c0.724-0.647,0.979-1.75,0.619-2.651C40.659,63.223,39.316,62.543,38.157,62.903z"/>
	</g>
	<path fill="#2D2D2D" stroke="#2D2D2D" stroke-width="0.0938" stroke-miterlimit="10.43" d="M38.422,64.08
		c0.839-0.336,1.803,0.514,1.587,1.386c-0.135,0.896-1.356,1.309-2.001,0.669C37.317,65.57,37.568,64.335,38.422,64.08z"/>
	<path fill="#2D2D2D" stroke="#2D2D2D" stroke-width="0.0938" stroke-miterlimit="10.43" d="M37.23,88.141
		c-0.032-0.885,0.804-1.628,1.675-1.56c7.043-0.003,14.085-0.004,21.13,0c0.866-0.061,1.679,0.684,1.662,1.558
		c0.01,2.391,0.003,4.782,0.004,7.172c2.775,1.548,5.563,3.071,8.34,4.617c0.308,0.135,0.324,0.496,0.315,0.785
		c-0.013,0.461,0.121,1.094-0.425,1.304H29.056c-0.369-0.077-0.54-0.432-0.482-0.779c0.046-0.443-0.172-1.081,0.334-1.323
		c2.769-1.543,5.552-3.064,8.322-4.607C37.226,92.918,37.225,90.529,37.23,88.141z"/>
</g>
</svg>
