<?xml version="1.0" encoding="utf-8"?>
<!-- Generator: Adobe Illustrator 16.0.0, SVG Export Plug-In . SVG Version: 6.00 Build 0)  -->
<!DOCTYPE svg PUBLIC "-//W3C//DTD SVG 1.1//EN" "http://www.w3.org/Graphics/SVG/1.1/DTD/svg11.dtd">
<svg version="1.1" id="Layer_1" xmlns="http://www.w3.org/2000/svg" xmlns:xlink="http://www.w3.org/1999/xlink" x="0px" y="0px"
	 width="130px" height="108px" viewBox="0 0 130 108" enable-background="new 0 0 130 108" xml:space="preserve">
<g>
	<g>
		<path fill="#2D2D2D" stroke="#2D2D2D" stroke-width="0.0938" stroke-miterlimit="10.43" d="M5.069,4.465h120.014
			c0.934,0.132,1.848,0.472,2.58,1.076c1.029,0.817,1.666,2.067,1.803,3.368v78.016c-0.137,1.208-0.693,2.374-1.611,3.181
			c-0.895,0.819-2.111,1.264-3.322,1.248c-4.48-0.001-8.961-0.001-13.441,0c-0.004-2.808-0.002-5.614,0-8.424
			c3.316,0,6.631,0.003,9.945-0.002c0-23.346-0.002-46.693,0-70.038c-37.357,0-74.713-0.001-112.07,0
			c0.002,23.346-0.003,46.694,0.002,70.041c21.043-0.001,42.084,0,63.126-0.001c0.002,2.81,0.002,5.616,0,8.424
			c-21.612-0.002-43.224,0-64.836-0.001c-1.251-0.025-2.564,0.149-3.74-0.382c-1.636-0.657-2.745-2.268-2.985-3.989V8.865
			c0.144-0.853,0.421-1.702,0.943-2.4C2.302,5.309,3.657,4.576,5.069,4.465z M64.395,85.087c-0.917,0.265-1.588,1.201-1.518,2.157
			c0.026,1.121,1.076,2.089,2.198,2.024c1.255,0.003,2.302-1.286,2.036-2.513C66.923,85.544,65.565,84.698,64.395,85.087z"/>
	</g>
	<path fill="#2D2D2D" stroke="#2D2D2D" stroke-width="0.0938" stroke-miterlimit="10.43" d="M38.042,29.874
		c1.572-0.777,3.503-0.772,5.071,0.016c1.539,0.755,2.698,2.233,3.056,3.914c0.536,2.308-0.555,4.877-2.594,6.083
		c-0.248,0.103-0.526,0.095-0.785,0.141c0-0.304,0-0.609,0.003-0.914c1.384-0.783,2.378-2.259,2.437-3.867
		c0.136-2.07-1.3-4.098-3.286-4.684c-1.905-0.629-4.143,0.17-5.246,1.841c-0.929,1.338-1.072,3.179-0.337,4.638
		c0.421,0.883,1.147,1.582,1.982,2.077c0.002,0.399,0.002,0.797-0.001,1.197c-1.155-0.501-2.155-1.365-2.771-2.47
		c-0.911-1.582-0.986-3.609-0.202-5.257C35.919,31.415,36.877,30.441,38.042,29.874z"/>
	<path fill="#2D2D2D" stroke="#2D2D2D" stroke-width="0.0938" stroke-miterlimit="10.43" d="M39.28,32.17
		c1.009-0.463,2.263-0.337,3.152,0.336c0.85,0.617,1.349,1.685,1.257,2.737c-0.021,0.753-0.404,1.433-0.878,1.998
		c0.001-0.522-0.067-1.043-0.273-1.526c0.296-0.938-0.088-2.05-0.98-2.508c-0.959-0.562-2.307-0.15-2.807,0.835
		c-0.299,0.502-0.275,1.11-0.157,1.663c-0.208,0.478-0.271,0.996-0.298,1.514c-0.481-0.605-0.868-1.327-0.85-2.12
		C37.383,33.867,38.156,32.663,39.28,32.17z"/>
	<path fill="#2D2D2D" stroke="#2D2D2D" stroke-width="0.0938" stroke-miterlimit="10.43" d="M38.795,36.728
		c-0.012-0.828,0.666-1.576,1.479-1.687c0.761-0.134,1.581,0.281,1.899,0.989c0.186,0.355,0.162,0.767,0.167,1.155
		c-0.011,1.187,0.004,2.375-0.01,3.56c0.504-0.287,1.111-0.469,1.678-0.253c0.569,0.166,0.96,0.655,1.171,1.188
		c0.408-0.275,0.878-0.508,1.387-0.435c0.734,0.045,1.335,0.599,1.567,1.277c0.741-0.632,1.96-0.597,2.587,0.176
		c0.62,0.706,0.369,1.699,0.417,2.551c-0.064,1.66,0.198,3.37-0.311,4.983c-0.336,1.128-0.67,2.256-1.005,3.384
		c-0.183,0.586-0.206,1.253-0.626,1.737c-0.411,0.526-1.076,0.813-1.737,0.808c-1.899,0.02-3.796-0.01-5.694,0.007
		c-0.675,0.021-1.385-0.188-1.84-0.709c-0.411-0.398-0.444-1.009-0.767-1.46c-1.514-2.118-3.021-4.242-4.525-6.368
		c-0.552-0.741-0.366-1.875,0.37-2.423c0.64-0.58,1.705-0.596,2.337,0.003c0.51,0.487,0.957,1.036,1.451,1.538
		C38.794,43.409,38.783,40.068,38.795,36.728z"/>
	<g>
		<path fill="#2D2D2D" stroke="#2D2D2D" stroke-width="0.0938" stroke-miterlimit="10.43" d="M74.589,45.51
			c0.582-1.611,2.207-2.771,3.924-2.783c8.516-0.004,17.035,0.001,25.553-0.003c0.793,0.004,1.613-0.062,2.379,0.195
			c1.707,0.506,3.006,2.178,2.996,3.971c0.002,17.483,0,34.963,0.002,52.447c0.021,1.135-0.469,2.256-1.283,3.043
			c-0.732,0.745-1.758,1.084-2.758,1.286H78.431c-1.455-0.204-2.896-0.964-3.588-2.307c-0.666-1.106-0.484-2.437-0.504-3.663
			c0-16.537,0-33.072,0-49.608C74.345,47.225,74.259,46.33,74.589,45.51z M77.687,43.708c-1.057,0.285-1.947,1.111-2.309,2.146
			c-0.25,0.666-0.193,1.387-0.197,2.085c0.004,17.131,0,34.263,0.002,51.396c-0.018,1.364,0.885,2.673,2.158,3.155
			c0.799,0.335,1.682,0.221,2.525,0.238c8.471-0.002,16.941,0.005,25.414-0.003c1.781-0.003,3.355-1.607,3.314-3.391
			c0.002-17.429,0-34.86,0.002-52.288c0.074-1.813-1.523-3.469-3.338-3.457c-8.611-0.011-17.225,0.002-25.836-0.006
			C78.843,43.584,78.253,43.556,77.687,43.708z"/>
	</g>
	<g>
		<path fill="#2D2D2D" stroke="#2D2D2D" stroke-width="0.0938" stroke-miterlimit="10.43" d="M75.747,46.892
			c0.004-1.457,1.309-2.757,2.771-2.735c2.566-0.004,5.133,0.001,7.701-0.003c0.025,0.402-0.066,0.893,0.281,1.184
			c0.215,0.221,0.541,0.229,0.83,0.234c3.043-0.004,6.086-0.004,9.129,0c0.283-0.006,0.605-0.015,0.816-0.233
			c0.346-0.295,0.256-0.783,0.283-1.185c2.27,0.001,4.537,0.003,6.805,0c0.686-0.001,1.41-0.057,2.043,0.263
			c0.996,0.458,1.664,1.53,1.627,2.628c0,17.43,0,34.862,0,52.293c0.037,1.483-1.277,2.842-2.768,2.818
			c-8.918,0.005-17.84,0.004-26.76,0.001c-1.488,0.021-2.801-1.335-2.762-2.816C75.745,81.856,75.741,64.373,75.747,46.892z
			 M81.72,46.534c-0.711,0.162-1.002,1.159-0.459,1.661c0.484,0.556,1.492,0.3,1.674-0.408
			C83.185,47.078,82.431,46.308,81.72,46.534z M77.731,50.854c0,15.091,0,30.18,0,45.271c9.438,0.001,18.877,0.001,28.316,0
			c-0.002-15.09-0.002-30.18,0-45.271C96.608,50.851,87.171,50.851,77.731,50.854z M91.296,97.209
			c-0.996,0.283-1.656,1.412-1.377,2.418c0.229,1.019,1.334,1.733,2.359,1.503c1.125-0.188,1.918-1.451,1.559-2.545
			C93.56,97.527,92.337,96.859,91.296,97.209z"/>
	</g>
	<path fill="#2D2D2D" stroke="#2D2D2D" stroke-width="0.0938" stroke-miterlimit="10.43" d="M88.519,59.158
		c1.578-0.522,3.383-0.317,4.797,0.563c1.52,0.924,2.561,2.588,2.709,4.361c0.217,2.082-0.84,4.217-2.605,5.333
		c-0.262,0.164-0.59,0.137-0.881,0.194c0-0.306,0-0.61,0.004-0.914c1.387-0.784,2.381-2.265,2.438-3.874
		c0.131-2.064-1.297-4.084-3.275-4.672c-1.873-0.625-4.074,0.131-5.195,1.75c-0.957,1.314-1.146,3.147-0.449,4.62
		c0.416,0.93,1.164,1.669,2.033,2.182c0.002,0.399,0.002,0.798-0.002,1.196c-1.123-0.49-2.104-1.319-2.721-2.385
		c-0.996-1.656-1.055-3.825-0.156-5.536C85.894,60.654,87.104,59.617,88.519,59.158z"/>
	<path fill="#2D2D2D" stroke="#2D2D2D" stroke-width="0.0938" stroke-miterlimit="10.43" d="M89.038,61.744
		c0.975-0.439,2.172-0.337,3.051,0.277c0.906,0.608,1.447,1.72,1.35,2.811c-0.025,0.751-0.406,1.428-0.877,1.989
		c0-0.522-0.068-1.044-0.273-1.527c0.295-0.935-0.086-2.043-0.977-2.504c-0.959-0.565-2.309-0.154-2.811,0.831
		c-0.299,0.503-0.277,1.108-0.156,1.662c-0.211,0.478-0.271,0.995-0.287,1.513c-0.504-0.595-0.883-1.331-0.863-2.127
		C87.136,63.437,87.913,62.236,89.038,61.744z"/>
	<path fill="#2D2D2D" stroke="#2D2D2D" stroke-width="0.0938" stroke-miterlimit="10.43" d="M88.544,66.313
		c-0.018-0.939,0.852-1.75,1.781-1.713c0.92-0.022,1.773,0.786,1.758,1.716c0.008,1.336,0.004,2.674-0.004,4.011
		c0.504-0.286,1.113-0.468,1.68-0.255c0.568,0.169,0.957,0.657,1.17,1.189c0.406-0.272,0.873-0.507,1.383-0.435
		c0.734,0.042,1.342,0.597,1.57,1.277c0.672-0.557,1.719-0.618,2.389-0.023c0.41,0.34,0.629,0.876,0.617,1.406
		c-0.004,1.497,0.006,2.995-0.004,4.492c-0.01,1.125-0.428,2.184-0.729,3.254c-0.281,0.979-0.611,1.945-0.826,2.942
		c-0.23,0.94-1.178,1.6-2.135,1.568c-1.938,0.015-3.879,0.004-5.818,0c-0.666,0.016-1.344-0.255-1.77-0.778
		c-0.355-0.392-0.393-0.958-0.699-1.382c-1.494-2.087-2.975-4.187-4.463-6.276c-0.346-0.45-0.48-1.054-0.318-1.601
		c0.305-1.096,1.719-1.752,2.707-1.108c0.654,0.482,1.123,1.168,1.705,1.731C88.544,72.99,88.532,69.651,88.544,66.313z"/>
</g>
</svg>
