<?xml version="1.0" encoding="utf-8"?>
<!-- Generator: Adobe Illustrator 16.0.0, SVG Export Plug-In . SVG Version: 6.00 Build 0)  -->
<!DOCTYPE svg PUBLIC "-//W3C//DTD SVG 1.1//EN" "http://www.w3.org/Graphics/SVG/1.1/DTD/svg11.dtd">
<svg version="1.1" id="Layer_1" xmlns="http://www.w3.org/2000/svg" xmlns:xlink="http://www.w3.org/1999/xlink" x="0px" y="0px"
	 width="130px" height="108px" viewBox="0 0 130 108" enable-background="new 0 0 130 108" xml:space="preserve">
<g>
	<path fill="#2D2D2D" stroke="#2D2D2D" stroke-width="0.0938" stroke-miterlimit="10.43" d="M92.743,1.676
		c0.633-0.668,1.708-0.827,2.521-0.41c0.388,0.188,0.673,0.524,0.975,0.822C102.157,8.009,108.08,13.929,114,19.851
		c0.542,0.525,0.784,1.342,0.597,2.076c-0.206,0.912-1.065,1.637-2.009,1.646c-1.714,0.006-3.43-0.001-5.143,0.002
		c0.004,7.177-0.004,14.353,0.004,21.53c-2.013-0.279-4.049-0.435-6.08-0.318c-0.396-4.214-2.255-8.266-5.176-11.329
		c-3.822-4.075-9.49-6.33-15.068-5.947c-0.005-1.312,0-2.625-0.003-3.936c-1.696,0-3.392,0-5.088,0
		c-1.059,0.018-2.023-0.867-2.116-1.917c-0.074-0.641,0.146-1.314,0.611-1.768C80.601,13.821,86.674,7.749,92.743,1.676z"/>
	<path fill="#2D2D2D" stroke="#2D2D2D" stroke-width="0.0938" stroke-miterlimit="10.43" d="M35.193,16.354
		c4.843-2.006,10.234-2.641,15.417-1.868c6.078,0.886,11.831,3.788,16.178,8.122c3.078,3.042,5.457,6.781,6.921,10.853
		c2.46-1.603,5.373-2.505,8.31-2.544c4.328-0.106,8.649,1.697,11.627,4.836c3.275,3.366,4.874,8.252,4.242,12.905
		c3.938-0.754,8.05-0.598,11.91,0.491c6.596,1.821,12.352,6.407,15.64,12.403c1.968,3.541,3.058,7.557,3.203,11.604v2.055
		c-0.248,4.92-1.878,9.771-4.75,13.782c-3.955,5.617-10.229,9.541-17.022,10.582c-2.486,0.424-5.017,0.31-7.526,0.324
		c-10.414-0.005-20.828,0.01-31.242-0.009c3.215-3.26,6.476-6.476,9.704-9.724c1.145-1.201,1.698-2.936,1.461-4.582
		c-0.27-2.065-1.776-3.908-3.761-4.553c-1.093-0.404-2.271-0.267-3.408-0.29c-0.002-6.957,0.002-13.914-0.002-20.871
		c-0.023-2.294-1.638-4.445-3.813-5.153c-0.943-0.341-1.961-0.304-2.947-0.297c-6.927,0-13.852-0.002-20.778,0.001
		c-1.646-0.018-3.276,0.732-4.331,1.996c-0.875,1.021-1.347,2.362-1.331,3.704c0,6.874,0,13.746,0,20.62
		c-1.035,0.027-2.098-0.103-3.105,0.199c-1.682,0.454-3.104,1.746-3.721,3.377c-0.65,1.621-0.464,3.541,0.481,5.014
		c0.39,0.647,0.969,1.145,1.493,1.679c2.961,2.963,5.925,5.924,8.885,8.888c-7.355,0.001-14.711,0.003-22.065,0
		c-4.145-0.008-8.276-1.362-11.605-3.834c-3.233-2.373-5.713-5.756-6.988-9.559c-0.607-1.783-0.935-3.653-1.02-5.533v-1.797
		c0.119-1.53,0.341-3.057,0.786-4.528c1.271-4.381,4.138-8.267,7.931-10.798c-1.8-2.278-2.603-5.304-2.157-8.174
		c0.383-2.633,1.813-5.092,3.902-6.739c1.61-1.294,3.607-2.074,5.66-2.274c-0.497-4.195-0.069-8.498,1.259-12.51
		c1.314-3.999,3.52-7.697,6.397-10.767C27.863,20.354,31.354,17.935,35.193,16.354z"/>
	<path fill="#2D2D2D" stroke="#2D2D2D" stroke-width="0.0938" stroke-miterlimit="10.43" d="M42.338,59.984
		c-0.004-1.169,1.064-2.179,2.226-2.124c7.306,0,14.61-0.004,21.917,0.002c1.15-0.037,2.191,0.977,2.187,2.129
		c0.009,8.063,0.001,16.127,0.004,24.188c1.689,0.002,3.378,0.002,5.067,0c0.726-0.009,1.434,0.395,1.813,1.012
		c0.384,0.611,0.436,1.416,0.128,2.069c-0.178,0.398-0.505,0.698-0.809,1c-5.947,5.944-11.888,11.894-17.837,17.833
		c-0.796,0.822-2.238,0.83-3.043,0.02c-6.037-6.024-12.061-12.063-18.096-18.09c-0.358-0.337-0.641-0.77-0.729-1.26
		c-0.292-1.239,0.737-2.572,2.015-2.58c1.717-0.004,3.433-0.004,5.15,0C42.34,76.114,42.325,68.05,42.338,59.984z"/>
</g>
</svg>
