<?xml version="1.0" encoding="utf-8"?>
<!-- Generator: Adobe Illustrator 16.0.0, SVG Export Plug-In . SVG Version: 6.00 Build 0)  -->
<!DOCTYPE svg PUBLIC "-//W3C//DTD SVG 1.1//EN" "http://www.w3.org/Graphics/SVG/1.1/DTD/svg11.dtd">
<svg version="1.1" id="Layer_1" xmlns="http://www.w3.org/2000/svg" xmlns:xlink="http://www.w3.org/1999/xlink" x="0px" y="0px"
	 width="130px" height="108px" viewBox="0 0 130 108" enable-background="new 0 0 130 108" xml:space="preserve">
<g>
	<path fill="#2D2D2D" stroke="#2D2D2D" stroke-width="0.0938" stroke-miterlimit="10.43" d="M43.241,8.516
		c1.432-0.835,3.146-1.104,4.783-0.995c0.13,0.052,0.248,0.125,0.37,0.194c1.054,0.027,1.952,0.635,2.955,0.866
		c0.052,0.058,0.155,0.174,0.207,0.232c0.189,0.008,0.38,0.016,0.572,0.023c0.065,0.152,0.134,0.304,0.206,0.452
		c0.583,0.264,1.117,0.665,1.476,1.203c0.905,0.677,1.32,1.781,1.915,2.707c0.009,0.151,0.021,0.304,0.034,0.456
		c0.191,0.327,0.113,0.718,0.143,1.08c0.358,1.147-0.24,2.287-0.416,3.411c-0.015,1.322-0.176,2.692,0.217,3.975
		c0.049,0.529,0.279,1.031,0.176,1.57c-0.629-0.292-0.977-1.01-1.682-1.147c-0.288-0.188-0.642-0.346-0.747-0.705
		c-0.724-0.216-1.33-0.692-1.962-1.089c-0.082-0.005-0.243-0.015-0.324-0.02c-0.819-0.519-1.773-0.759-2.614-1.224
		c-0.26,0.042-0.52,0.027-0.685-0.199c-0.173-0.016-0.346-0.031-0.519-0.045c-0.766-0.31-1.574-0.515-2.399-0.56
		c-0.497-0.297-1.119-0.098-1.591-0.441c-1.758-0.027-3.516-0.001-5.274-0.015c-0.424-0.026-0.783,0.282-1.207,0.246
		c-0.54-0.039-1.049,0.188-1.586,0.167c-0.382,0.232-0.796,0.395-1.238,0.463c-0.375,0.148-0.77,0.209-1.173,0.179
		c0.066-0.294,0.278-0.5,0.493-0.692c0.308-0.269,0.474-0.67,0.822-0.896c0.284-0.245,0.68-0.391,0.827-0.762
		c0.576-0.115,0.947-0.621,1.486-0.815c0.526-0.177,0.943-0.565,1.47-0.742c0.239-0.113,0.479-0.222,0.721-0.331
		c0.434-0.024,0.845-0.177,1.21-0.408c0.085-0.014,0.253-0.039,0.336-0.053c0.053-0.86-0.03-1.724,0.043-2.581
		c0.183-0.396,0.311-0.815,0.492-1.21c0.339-0.477,0.776-0.897,0.987-1.455c0.07-0.007,0.211-0.024,0.281-0.033
		c0.268-0.275,0.558-0.53,0.866-0.76C42.994,8.552,43.159,8.528,43.241,8.516z"/>
	<path fill="#2D2D2D" stroke="#2D2D2D" stroke-width="0.0938" stroke-miterlimit="10.43" d="M80.82,7.787
		c1.493-0.321,3.156-0.349,4.563,0.32c0.533,0.046,0.996,0.339,1.463,0.572c0.563,0.471,1.217,0.872,1.596,1.521
		c0.146,0.239,0.33,0.45,0.52,0.657c0.149,0.395,0.294,0.79,0.442,1.186c0.024,0.59,0.012,1.181,0.015,1.771
		c0.086,0.01,0.254,0.027,0.338,0.036c0.148,0.141,0.299,0.281,0.447,0.42c0.004,0.146,0.011,0.291,0.016,0.437
		c0.101,0.101,0.201,0.203,0.303,0.304c0.268,0.028,0.546,0.036,0.788,0.171c1.069,0.507,2.153,1.013,3.112,1.714
		c0.504,0.471,1.202,0.749,1.531,1.388c0.31,0.313,0.744,0.554,0.833,1.023c-0.525,0.053-1.014-0.146-1.525-0.203
		c-0.822-0.516-1.819-0.565-2.761-0.64c-0.302-0.081-0.594-0.227-0.916-0.218c-1.367,0.004-2.735,0.001-4.103,0.002
		c-0.656,0.009-1.341-0.091-1.95,0.212c-0.337,0.002-0.675,0.05-0.951,0.261c-0.642,0.008-1.269,0.157-1.859,0.4
		c-0.07,0.008-0.21,0.021-0.28,0.029c-0.176,0.145-0.411,0.134-0.619,0.171c-0.296,0.175-0.639,0.217-0.966,0.299
		c-0.763,0.407-1.674,0.531-2.349,1.101c-0.082,0.006-0.241,0.019-0.321,0.025c-0.434,0.283-0.885,0.538-1.345,0.774
		c-0.548,0.263-0.991,0.688-1.524,0.976c-0.538,0.284-0.915,0.871-1.55,0.949c-0.017-0.338,0.021-0.676,0.231-0.953
		c0.026-0.447,0.095-0.893,0.265-1.31c0.018-0.662,0.04-1.324,0.005-1.985c-0.088-0.445-0.26-0.873-0.259-1.333
		c-0.254-0.505-0.174-1.083-0.3-1.62c-0.063-0.588-0.071-1.182-0.017-1.771c0.145-0.519,0.107-1.085,0.371-1.571
		c0.154-0.27,0.146-0.584,0.139-0.885c0.082-0.007,0.246-0.021,0.328-0.029c0.274-0.571,0.844-0.962,1.146-1.531
		c0.505-0.179,0.722-0.746,1.225-0.927c0.066-0.104,0.135-0.208,0.202-0.313c0.548-0.148,0.979-0.535,1.507-0.731
		c0.281-0.05,0.552-0.155,0.803-0.294C79.894,8.095,80.354,7.931,80.82,7.787z"/>
	<g>
		<path fill="#2D2D2D" stroke="#2D2D2D" stroke-width="0.0938" stroke-miterlimit="10.43" d="M36.742,21.77
			c0.678,0.096,1.336-0.086,1.997-0.21c0.924-0.049,1.853,0.002,2.78-0.02c0.82-0.043,1.585,0.284,2.38,0.424
			c2.218,0.407,4.393,1.083,6.429,2.06c2.29,1.126,4.487,2.712,5.749,4.985c0.284,0.52,0.641,0.99,0.955,1.487
			c0.506,0.917,0.62,1.973,0.847,2.977c0.213-0.005,0.426-0.011,0.641-0.015c0.855-1.368,1.787-2.714,2.999-3.794
			c0.338-0.306,0.732-0.545,1.151-0.725c0.465-0.22,0.996-0.135,1.494-0.154c1.002,0.031,2.036-0.102,3.001,0.234
			c0.999,0.318,1.723,1.135,2.355,1.931c0.608,0.792,1.171,1.622,1.646,2.5c0.071-0.009,0.214-0.025,0.285-0.032
			c0.141,0.065,0.28,0.131,0.425,0.196c0.32-0.888,0.445-1.825,0.664-2.741c0.039-0.646,0.442-1.172,0.718-1.733
			c0.24-0.527,0.743-0.874,0.975-1.408c0.78-0.888,1.729-1.608,2.559-2.447c0.558-0.17,0.979-0.583,1.445-0.913
			c0.345-0.251,0.767-0.352,1.138-0.559c0.732-0.452,1.527-0.819,2.364-1.025c0.087-0.06,0.174-0.118,0.264-0.177
			c0.619-0.006,1.092-0.5,1.721-0.489c0.378-0.066,0.753-0.16,1.126-0.257c0.554-0.157,1.137-0.027,1.698-0.12
			c0.92-0.16,1.856-0.111,2.784-0.118c4.214,0.064,8.514,1.332,11.779,4.066c0.495,0.489,1.078,0.9,1.47,1.487
			c2.807,3.901,5.589,7.817,8.318,11.771c2.169,3.015,4.253,6.087,6.346,9.154c2.148,2.974,4.111,6.083,6.342,9
			c0.83,1.386,1.936,2.598,2.616,4.072c0.499,0.885,0.628,1.929,1.188,2.782c-0.035,0.843,0.276,1.634,0.512,2.426
			c0.148,0.781,0.387,1.558,0.325,2.363c0.103,0.074,0.205,0.15,0.31,0.23v6.636c-0.046-0.032-0.138-0.1-0.184-0.134
			c-0.381,2.282-0.867,4.557-1.65,6.738c-1.151,3.219-2.847,6.266-5.13,8.822c-2.568,2.94-5.85,5.224-9.424,6.767
			c-2.863,1.231-5.907,2.062-9.008,2.372c-2.482,0.335-5.001,0.092-7.446-0.379c-6.123-1.185-11.806-4.516-15.826-9.284
			c-0.822-1.035-1.714-2.024-2.353-3.189c-0.438-0.881-1.055-1.664-1.4-2.593c-0.064-0.051-0.191-0.151-0.255-0.203
			c-0.005-0.186-0.011-0.373-0.015-0.558c-0.583-0.889-0.822-1.943-1.067-2.961c-0.04-0.063-0.126-0.188-0.167-0.252
			c-0.129-0.585-0.376-1.143-0.443-1.74c-0.035-0.871-0.354-1.696-0.392-2.569c-0.274-1.057-0.143-2.152-0.162-3.229
			c-0.078-0.113-0.158-0.23-0.235-0.344c-0.014-1.689,0.003-3.379-0.01-5.068c-0.026-1.223-0.72-2.274-1.147-3.384
			c-0.392-0.696-0.683-1.304-1.346-1.821c-0.081-0.176-0.404-0.313-0.482-0.486c-0.553-0.297-1.091-0.712-1.702-0.861
			c-0.584-0.142-1.141-0.339-1.748-0.377c-0.838-0.056-1.681-0.22-2.521-0.111c-0.437,0.103-0.929,0.143-1.384,0.112
			c-0.83-0.044-1.539,0.423-2.333,0.607c-0.717,0.152-1.351,0.533-1.974,0.901c-1.113,0.8-1.512,2.202-1.968,3.429
			c-0.298,0.762-0.402,1.581-0.458,2.392c-0.008,1.413,0,2.826,0.001,4.238c0.005,0.58-0.185,1.141-0.168,1.721
			c-0.026,0.674,0.102,1.376-0.138,2.024c-0.174,0.455-0.061,0.952-0.163,1.422c-0.236,1.014-0.372,2.053-0.726,3.037
			c-0.749,2.446-1.874,4.768-3.262,6.914c-2.521,3.917-5.929,7.296-10.012,9.563c-2.34,1.264-4.854,2.229-7.47,2.726
			c-2.438,0.531-4.94,0.738-7.433,0.608c-3.848-0.437-7.639-1.523-11.067-3.344C9.708,93.923,4.947,88.225,2.717,81.67
			c-0.052-0.099-0.104-0.194-0.156-0.29c-0.216-0.91-0.462-1.813-0.74-2.705c-0.098-0.308-0.115-0.633-0.138-0.952
			c-0.073-0.097-0.147-0.191-0.22-0.283c0.013-1.132-0.042-2.265,0.087-3.393c0.044-1.499,0.028-3,0.049-4.503
			c0.024-1.108-0.079-2.245,0.235-3.328c0.212-0.702,0.399-1.41,0.623-2.107c0.197-0.79,0.493-1.547,0.807-2.293
			c0.478-1.194,1.315-2.188,2.011-3.255c0.697-1.1,1.523-2.106,2.209-3.213c1.151-1.622,2.322-3.23,3.367-4.92
			c1.084-1.579,2.211-3.128,3.281-4.715c3.565-5.233,7.211-10.413,10.787-15.64c0.652-0.845,1.198-1.76,1.777-2.653
			c0.42-0.671,1.103-1.096,1.618-1.682c0.237-0.26,0.524-0.467,0.814-0.664c0.538-0.367,1.03-0.806,1.615-1.1
			c0.592-0.299,1.167-0.629,1.731-0.977c0.132-0.011,0.265-0.021,0.397-0.032c0.119-0.118,0.24-0.234,0.36-0.35
			c0.627-0.066,1.212-0.322,1.822-0.464c0.088-0.065,0.177-0.129,0.266-0.193C35.8,21.958,36.276,21.884,36.742,21.77z
			 M59.152,46.598c-0.588,0.609-0.92,1.51-0.681,2.346c0.333,1.067,1.269,1.822,2.244,2.29c1.885,0.89,4.065,1.029,6.091,0.612
			c1.432-0.338,2.897-0.994,3.735-2.264c0.545-0.871,0.417-2.082-0.281-2.832c-1.079-1.277-2.766-1.811-4.368-2.039
			c-1.003-0.047-2.024-0.101-3.015,0.085C61.514,45.056,60.115,45.555,59.152,46.598z M21.941,53.532
			c-5.595,2.026-10.125,6.667-12.115,12.264c-0.218,0.67-0.449,1.338-0.604,2.03c-0.234,0.997-0.395,2.012-0.487,3.032
			c-0.041,1.714-0.107,3.442,0.227,5.134c0.202,1.184,0.51,2.35,0.917,3.48c2.173,6.126,7.463,11.037,13.755,12.694
			c1.764,0.516,3.605,0.655,5.43,0.741c2.236-0.08,4.481-0.389,6.597-1.144c3.862-1.323,7.277-3.872,9.705-7.148
			c1.526-2.065,2.779-4.366,3.421-6.864c0.154-0.708,0.248-1.431,0.445-2.129c0.084-1.819,0.373-3.657,0.003-5.465
			c-0.075-0.58-0.078-1.167-0.261-1.726c-0.109-0.564-0.254-1.122-0.412-1.674c-0.057-0.188-0.095-0.383-0.126-0.577
			c-0.065-0.103-0.128-0.207-0.192-0.31c-0.021-0.596-0.333-1.116-0.536-1.661c-0.501-1.268-1.107-2.494-1.872-3.622
			c-1.797-2.711-4.441-4.801-7.393-6.132c-0.305-0.132-0.597-0.288-0.886-0.451c-0.068-0.018-0.201-0.054-0.268-0.07
			c-0.266-0.107-0.527-0.232-0.8-0.322c-0.605-0.166-1.171-0.444-1.781-0.597c-0.646-0.173-1.309-0.281-1.957-0.45
			c-0.61-0.052-1.211-0.162-1.814-0.275C27.9,52.124,24.802,52.453,21.941,53.532z M92.297,54.397
			c-4.345,2.188-7.795,6.084-9.438,10.664c-0.484,1.313-0.814,2.684-1.007,4.07c-0.076,0.476,0.029,0.952,0.018,1.429
			c-0.073-0.161-0.14-0.325-0.217-0.483c0.114,0.919-0.006,1.847,0.057,2.771c0.12,1.064,0.188,2.138,0.446,3.184
			c0.178,0.766,0.398,1.52,0.653,2.263c0.954,2.643,2.464,5.099,4.46,7.082c2.719,2.825,6.337,4.743,10.174,5.519
			c0.609,0.057,1.206,0.202,1.814,0.272c1.239,0.047,2.479,0.056,3.721,0.002c1.523-0.178,3.063-0.425,4.489-1.008
			c0.073-0.018,0.213-0.05,0.283-0.065c1.02-0.288,1.923-0.843,2.873-1.297c1.309-0.695,2.453-1.65,3.581-2.601
			c1.109-0.93,1.975-2.101,2.875-3.222c1.178-1.749,2.179-3.645,2.728-5.688c0.722-2.239,0.907-4.609,0.805-6.951
			c-0.163-1.062-0.246-2.134-0.538-3.17c-1.234-5.181-4.705-9.771-9.346-12.377c-2.529-1.453-5.397-2.259-8.289-2.518
			c-1.088,0.021-2.189-0.091-3.267,0.085C96.784,52.612,94.434,53.29,92.297,54.397z"/>
	</g>
</g>
</svg>
